<?xml version="1.0" encoding="utf-8"?>
<!-- Generator: Adobe Illustrator 18.0.0, SVG Export Plug-In . SVG Version: 6.00 Build 0)  -->
<!DOCTYPE svg PUBLIC "-//W3C//DTD SVG 1.1//EN" "http://www.w3.org/Graphics/SVG/1.1/DTD/svg11.dtd">
<svg version="1.1" id="Capa_1" xmlns="http://www.w3.org/2000/svg" xmlns:xlink="http://www.w3.org/1999/xlink" x="0px" y="0px"
	 viewBox="-2001.5 -649.4 3043.1 1202.6" enable-background="new -2001.5 -649.4 3043.1 1202.6" xml:space="preserve">
<g>
	<circle fill="#2EABE2" cx="-480.6" cy="-48.3" r="542.9"/>
	<rect x="-689.2" y="199.8" fill="#EFC996" width="405.7" height="250.9"/>
	<path fill="#1E1E1C" d="M-484.9,457c-59.3,1.1-208-167.9-208-167.9s-97.9,19.1-172.9,45.3c98.3,99,234.7,160.5,385.3,160.5
		c151,0,287.5-61.7,386-161.1c-77.7-26.5-185.2-44.5-185.2-44.5S-423.4,455.9-484.9,457z"/>
	<path fill="#FFFFFF" d="M-689.2,293.7c0,0,16.2,79.9,42.5,175.1c52.5,16.8,108.1,26,166,26c53.2,0,104.7-7.7,153.3-21.9
		c26.9-97,44-179.1,44-179.1l-201.2,153L-689.2,293.7z"/>
	<path opacity="0.2" fill="#1E1E1C" enable-background="new    " d="M-689.2,291.7c0,0,144.3,110.3,204,110.1
		c59.3-0.2,201.8-111,201.8-111v-94.4l-405.7,3.5C-689.2,199.8-689.2,291.7-689.2,291.7z"/>
	<path fill="#EFC996" d="M-485.2,369.5c-82.7,0.2-229-82.1-287.5-140.6c-22.6-22.6-100-345.3-57.4-435.2
		c42.5-89.7,132-250.2,343.5-250.2c206,0,301.3,159.6,344.2,249.1c42.9,89.5-36.6,415.7-56,435.2
		C-256.8,286.1-402.4,369.4-485.2,369.5z"/>
	<path fill="#1E1E1C" d="M-558.1-430.3c-49,16.8-121.1,41.4-179.9,94.1c49.2,9.4,177.5,24.5,252,20.2c133.8-7.4,243-37.7,261.4-70.7
		C-325.3-414.3-506.4-448.2-558.1-430.3z"/>
	<path fill="#1E1E1C" d="M-142.3-280.1c-22.3-46.6-54.9-115.1-113.6-167.3l-0.6-0.4c-111.7-27.6-311.8-61.3-368.4-44.4
		c-53.9,16.2-133.1,39.6-196.6,90.6c5.2,0.9,10.9,1.8,17.5,2.8c-10.5,7.2-20.8,15.1-30.7,23.6c6.3,1.1,14,2.4,22.3,3.7
		c-11,8.1-22.1,16.8-32.8,26.3c6.3,1.1,13.6,2.4,21.9,3.9c-7.9,6.3-15.8,12.9-23.4,20.1c8.1,1.5,17.7,3.1,28.7,4.8
		c-7,5.5-14,11.2-20.8,17.3c7.7,1.5,17.3,3.1,28,4.8c-6.1,5-12.1,9.9-18,15.3c59.6,11.4,215.2,29.6,305.6,24.7
		c111.2-6.1,208.4-25.4,265.6-49.7c1.5,39.6,4.6,79.3,9.9,109.5c22.8,132,61.5,238,96.3,252.4C-128.5-47.2-118.7-230.8-142.3-280.1z
		"/>
	<path fill="#1E1E1C" d="M-844-143.3c1.7,57.6-1.7,149.7,33.7,252.4c22.6-51.4,77.1-189.6,91.7-271.9
		c26.1-147.6,22.1-264.2-8.7-292.3C-782.7-352.4-847.2-250.6-844-143.3z"/>
	<path fill="#1E1E1C" d="M-550.6,233.3c0,0,1.8-0.9,5.7-2.4c1.8-0.7,4-1.3,6.6-2.2c2.6-0.7,5.3-1.7,8.5-2.2c6.3-1.7,13.4-2.9,21.4-4
		c7.7-1.5,16.2-1.7,24.5-2.6c8.3-0.7,16.6-0.7,24.5-1.1c7.7-0.4,15.1,0,21.4,0c12.5,0.2,20.8,0.4,20.8,0.4c1.8,0,3.3,1.5,3.3,3.3
		c0,1.8-1.5,3.3-3.3,3.3h-0.2c0,0-8.3,0-20.6,0.2c-6.1,0-13.4,0-21.2,0.6c-7.7,0.6-16,0.7-24.1,1.7c-8.1,1.1-16.2,1.7-23.7,3.3
		c-7.5,1.3-14.5,2.8-20.2,4.4c-2.9,0.7-5.5,1.5-7.9,2.4c-2.2,0.7-4.4,1.3-5.7,2c-2.9,1.1-4.8,2.2-4.8,2.2c-2.6,1.3-5.7,0.4-7-2.2
		C-554.1,237.9-553.2,234.8-550.6,233.3C-550.8,233.3-550.8,233.3-550.6,233.3L-550.6,233.3z"/>
	<path fill="#1E1E1C" d="M-396.7-125.8c0,0,2,0.4,5.7,1.1c3.9,0.7,9.2,1.8,15.5,3.3c12.5,2.8,28.9,7.5,44.9,13.1
		c7.9,3.1,16,5.7,23.4,9.4c3.7,1.7,7.2,3.3,10.5,5c3.3,1.7,6.4,2.9,9.4,4.8c11,6.6,18.6,11,18.6,11c4.8,2.8,6.3,8.8,3.5,13.6
		c-2.6,4.4-8.3,6.1-12.7,3.9l-1.1-0.6c0,0-7-3.5-17.5-8.5c-2.6-1.5-5.7-2.2-8.8-3.5c-3.1-1.1-6.4-2.4-9.9-3.7
		c-6.8-2.6-14.7-4.4-22.3-6.6c-15.5-3.9-31.1-7-42.9-8.5c-5.9-0.9-10.7-1.5-14-1.7c-3.5-0.4-5.3-0.6-5.3-0.6h-0.9
		c-8.7-0.7-15.1-8.5-14.2-17.1c0.7-8.7,8.5-15.1,17.1-14.2C-397.6-126-397.1-125.8-396.7-125.8z"/>
	<path fill="#1E1E1C" d="M-550.2-94.7c0,0-0.6,0-1.5,0c-0.9,0-2.2,0-4,0.2c-3.3,0.2-7.9,0.6-14,1.1c-5.9,0.4-12.7,1.8-20.1,2.8
		c-3.7,0.7-7.4,1.5-11,2.4c-3.9,0.9-7.7,1.5-11.4,2.6c-7.4,2.4-15.5,4-22.1,6.8c-6.8,2.8-13.4,5-18.6,7.5
		c-10.3,5.3-17.3,9.2-17.3,9.2l-1.1,0.6c-4.8,2.6-10.7,0.7-13.4-4c-2.4-4.6-0.9-10.1,3.3-12.9c0,0,7.4-4.8,18.2-11.8
		c5.5-3.7,12.5-6.4,19.7-10.3c7.2-3.9,15.5-6.3,23.6-9.8c4-1.7,8.1-2.6,12.1-4c4-1.1,8.1-2.6,12-3.7c7.9-1.8,15.1-3.9,21.5-5
		c6.3-1.3,11.8-2.2,15.8-2.8c3.7-0.6,5.9-0.7,5.9-0.7c8.7-1.1,16.4,5,17.7,13.4c1.1,8.7-5,16.4-13.4,17.7c-0.6,0-0.9,0-1.5,0
		L-550.2-94.7z"/>
	<g opacity="0.47">
		<g opacity="0.29">
			<path fill="#FFFFFF" d="M-183.5-74.5l19.7,69.4c0,0.2,0,0.4-0.2,0.4s-0.4,0-0.4-0.2l-21.9-68.7c-0.2-0.7,0.2-1.7,0.9-2
				C-184.6-75.8-183.7-75.4-183.5-74.5C-183.5-74.7-183.5-74.5-183.5-74.5z"/>
		</g>
		<g opacity="0.29">
			<path fill="#FFFFFF" d="M-187.6-114.4l19.7,69.6c0,0.2,0,0.4-0.2,0.4c-0.2,0-0.4,0-0.4-0.2l-21.9-68.8c-0.2-0.7,0.2-1.7,0.9-2
				C-188.7-115.9-187.9-115.3-187.6-114.4L-187.6-114.4z"/>
		</g>
		<g opacity="0.29">
			<path fill="#FFFFFF" d="M-191.8-154.4l19.7,69.6c0,0.2,0,0.4-0.2,0.4s-0.4,0-0.4-0.2l-21.9-68.8c-0.2-0.7,0.2-1.7,0.9-2
				C-192.9-155.7-192.2-155.1-191.8-154.4L-191.8-154.4z"/>
		</g>
		<g opacity="0.29">
			<path fill="#FFFFFF" d="M-196-194.1l19.7,69.6c0,0.2,0,0.4-0.2,0.4s-0.4,0-0.4-0.2l-21.9-68.8c-0.2-0.7,0.2-1.7,0.9-2
				C-197.2-195.4-196.2-195.1-196-194.1L-196-194.1z"/>
		</g>
		<g opacity="0.29">
			<path fill="#FFFFFF" d="M-200.1-234.1l19.7,69.6c0,0.2,0,0.4-0.2,0.4s-0.4,0-0.4-0.2l-21.9-68.8c-0.2-0.7,0.2-1.7,0.9-2
				C-201.4-235.4-200.5-235-200.1-234.1L-200.1-234.1z"/>
		</g>
		<g opacity="0.29">
			<path fill="#FFFFFF" d="M-204.3-274l19.7,69.6c0,0.2,0,0.4-0.2,0.4s-0.4,0-0.4-0.2l-21.9-68.8c-0.2-0.7,0.2-1.7,0.9-2
				C-205.4-275.3-204.5-274.8-204.3-274L-204.3-274z"/>
		</g>
	</g>
	<g opacity="0.47">
		<g opacity="0.29">
			<path fill="#FFFFFF" d="M-782.5-73.6l-21.9,68.7c0,0.2-0.2,0.2-0.4,0.2s-0.2-0.2-0.2-0.4l19.7-69.4c0.2-0.7,1.1-1.3,1.8-1.1
				C-782.9-75.4-782.4-74.5-782.5-73.6C-782.5-73.7-782.5-73.6-782.5-73.6z"/>
		</g>
		<g opacity="0.29">
			<path fill="#FFFFFF" d="M-778.5-113.5l-21.9,68.8c0,0.2-0.2,0.2-0.4,0.2s-0.2-0.2-0.2-0.4l19.7-69.6c0.2-0.7,1.1-1.3,1.8-1.1
				C-778.7-115.2-778.1-114.4-778.5-113.5L-778.5-113.5z"/>
		</g>
		<g opacity="0.29">
			<path fill="#FFFFFF" d="M-774.3-153.4l-21.9,68.8c0,0.2-0.2,0.2-0.4,0.2s-0.2-0.2-0.2-0.4l19.7-69.6c0.2-0.7,1.1-1.3,1.8-1.1
				C-774.6-155.1-774.1-154.2-774.3-153.4L-774.3-153.4z"/>
		</g>
		<g opacity="0.29">
			<path fill="#FFFFFF" d="M-770.2-193.2l-21.9,68.8c0,0.2-0.2,0.2-0.4,0.2c-0.2,0-0.2-0.2-0.2-0.4l19.7-69.6
				c0.2-0.7,1.1-1.3,1.8-1.1C-770.4-195.1-769.8-194.1-770.2-193.2C-770.2-193.4-770.2-193.4-770.2-193.2z"/>
		</g>
		<g opacity="0.29">
			<path fill="#FFFFFF" d="M-766-233.2l-21.9,68.8c0,0.2-0.2,0.2-0.4,0.2c-0.2,0-0.2-0.2-0.2-0.4l19.5-69.6c0.2-0.7,1.1-1.3,1.8-1.1
				C-766.2-235-765.8-234.1-766-233.2L-766-233.2z"/>
		</g>
		<g opacity="0.29">
			<path fill="#FFFFFF" d="M-761.7-273.1l-21.9,68.8c0,0.2-0.2,0.2-0.4,0.2s-0.2-0.2-0.2-0.4l19.7-69.6c0.2-0.7,1.1-1.3,1.8-1.1
				C-762.1-274.8-761.6-274-761.7-273.1L-761.7-273.1z"/>
		</g>
	</g>
	<path fill="#FFFFFF" d="M-554.8-40.6c0,21.7-17.7,39.4-39.4,39.4c-21.7,0-39.4-17.7-39.4-39.4S-615.9-80-594.2-80
		C-572.5-80-554.8-62.3-554.8-40.6z"/>
	<path fill="#422A19" d="M-569.4-40.6c0,13.6-11,24.9-24.9,24.9c-13.6,0-24.9-11-24.9-24.9s11-24.9,24.9-24.9
		C-580.4-65.3-569.4-54.2-569.4-40.6z"/>
	<circle fill="#1E1E1C" cx="-594.2" cy="-40.6" r="7.9"/>
	<path fill="#FFFFFF" d="M-583.5-53.5c0,2.6-2,4.8-4.8,4.8c-2.6,0-4.8-2.2-4.8-4.8c0-2.6,2-4.8,4.8-4.8S-583.5-56.1-583.5-53.5z"/>
	<path fill="#FFFFFF" d="M-594.2-48c0,1.1-0.9,2-2,2c-1.1,0-2-0.9-2-2c0-1.1,0.9-2,2-2C-595.1-50-594.2-49.1-594.2-48z"/>
	<path fill="#FFFFFF" d="M-398.2-40.6c0,21.7,17.7,39.4,39.4,39.4s39.4-17.7,39.4-39.4S-337.1-80-358.8-80S-398.2-62.3-398.2-40.6z"
		/>
	<path fill="#422A19" d="M-383.6-40.6c0,13.6,11,24.9,24.9,24.9c13.6,0,24.9-11,24.9-24.9s-11-24.9-24.9-24.9
		C-372.6-65.3-383.6-54.2-383.6-40.6z"/>
	<circle fill="#1E1E1C" cx="-358.8" cy="-40.6" r="7.9"/>
	<path fill="#FFFFFF" d="M-369.5-53.5c0,2.6,2,4.8,4.8,4.8c2.8,0,4.8-2.2,4.8-4.8c0-2.6-2-4.8-4.8-4.8
		C-367.4-58.3-369.5-56.1-369.5-53.5z"/>
	<path fill="#FFFFFF" d="M-358.6-48c0,1.1,0.9,2,2,2c1.1,0,2-0.9,2-2c0-1.1-0.9-2-2-2C-357.9-50-358.6-49.1-358.6-48z"/>
	<path fill="#424141" d="M-305.2,352.1c-8.7,18.8-18.2,37.4-28,55.6c-14.2,26.1-29.3,51.9-44.7,77.3c4-0.7,7.9-1.5,11.8-2.4
		c13.3-23.7,26.1-47.9,38.1-72.2c9.2-18.6,18.2-37.6,26.3-56.7c7.9-19.3,15.3-39,18.4-59.8l-0.6-0.2
		C-287.7,313.8-296.7,333.3-305.2,352.1z"/>
	<path fill="#424141" d="M-419.2,467.3c-2.8-3.9-5.7-7.5-8.8-11.2c-2.9-3.7-5.9-7.4-9-11c-6.1-7.4-12.5-14.4-19.1-21.4l-7.5,7.4
		c6.4,6.6,12.7,13.6,18.6,20.8c3.1,3.5,5.9,7.2,8.8,10.7c2.9,3.5,5.9,7.2,8.7,11c4.2,5.5,8.3,11.2,12.3,17.1
		c3.9-0.4,7.7-0.9,11.6-1.5C-408.5,481.7-413.6,474.5-419.2,467.3z"/>
	<path fill="#424141" d="M-513.6,424.4c-7,6.8-13.8,13.8-20.2,21.2c-3.3,3.5-6.4,7.2-9.6,10.9c-3.1,3.7-6.3,7.4-9.2,11.2
		c-5.2,6.4-10.1,13.3-14.9,20.1c3.9,0.6,7.7,1.1,11.6,1.7c3.7-5.2,7.5-10.3,11.4-15.3c2.8-3.9,5.9-7.4,9-10.9
		c2.9-3.7,6.1-7.2,9.4-10.7c6.3-7.2,12.9-13.8,19.5-20.4L-513.6,424.4z M-667.5,352.4c-8.5-19-17.3-38.3-21.4-58.7l-0.7,0.2
		c3.3,20.8,10.7,40.9,18.4,60c8.1,19.3,16.9,38.1,26.3,56.9c11.4,23,23.6,45.8,36.1,68.5c4,0.9,7.9,1.8,11.8,2.8
		c-14.7-24.3-29.1-49-42.7-74C-649.3,389.8-658.7,371.2-667.5,352.4z"/>
	<path fill="#1E1E1C" d="M-513.4,430.8l-27.4,33.3l20.8,29.1c13.1,0.9,26.3,1.3,39.6,1.3c9.9,0,19.7-0.2,29.5-0.7l19.1-26.5
		l-26.1-36.6h-55.4V430.8z"/>
	<path fill="#2D2E2C" d="M-740.8,428.1c4-20.6,8.1-41.1,11.4-61.7c3.9-21.9,7.5-44,10.7-66.1l-0.7-0.2
		c-5.9,21.5-11.4,43.1-16.6,64.8c-5,19.5-9.2,39-13.6,58.5c16.2,9.4,33,17.7,50.3,25.4l2.4-2.8l-6.8-2.9
		C-715.9,438-728.2,433.1-740.8,428.1z M-227,429.9l-32.2-131.6l-0.7,0.2l21.9,129.2l-36.6,15.5l-6.8,2.9l5,5.5l2.2,2.4
		c16.2-6.6,32.2-14.2,47.7-22.5L-227,429.9z"/>
	<g>
		<path fill="#2EABE2" d="M-1120.2,250.6h-116.7v242.4h-274.7V250.6h-463.2V45.7l370.8-635.3h367.3V28.8h116.7v221.8H-1120.2z"/>
	</g>
	<g>
		<path fill="#2EABE2" d="M1014.7,250.6H898v242.4H623.5V250.6H160.2V45.7l370.8-635.3h367.3V28.8h116.7v221.8H1014.7z"/>
	</g>
</g>
</svg>
