<svg xmlns="http://www.w3.org/2000/svg" xmlns:xlink="http://www.w3.org/1999/xlink" version="1.1" id="Capa_1" x="0" y="0" viewBox="0 0 1211 1215" enable-background="new 0 0 1211 1215" xml:space="preserve"><circle fill="#2EABE2" cx="605.5" cy="607.5" r="600"/><rect x="375" y="881.6" fill="#EFC996" width="448.4" height="277.3"/><path fill="#1E1E1C" d="M600.7 1165.8c-65.6 1.2-229.9-185.6-229.9-185.6s-108.3 21.2-191.1 50c108.7 109.5 259.3 177.3 425.8 177.3 166.9 0 317.8-68.1 426.5-178 -85.9-29.2-204.7-49.3-204.7-49.3S668.6 1164.6 600.7 1165.8z"/><path fill="#FFFFFF" d="M375 985.4c0 0 18 88.2 46.9 193.4 57.9 18.6 119.5 28.6 183.5 28.6 58.8 0 115.7-8.5 169.4-24.3 29.8-107.2 48.6-197.9 48.6-197.9l-222.4 169L375 985.4z"/><path opacity="0.2" fill="#1E1E1C" d="M375 983.1c0 0 159.5 121.8 225.4 121.6 65.6-0.3 223-122.6 223-122.6V877.8L375 881.6V983.1z"/><path fill="#EFC996" d="M600.4 1069.2c-91.4 0.2-253.1-90.8-317.7-155.5 -25-25-110.4-381.7-63.4-480.9 47-99.1 145.9-276.5 379.6-276.5 227.7 0 333 176.3 380.4 275.3 47.3 98.9-40.4 459.4-61.9 480.9C852.7 977.1 691.8 1069 600.4 1069.2z"/><path fill="#1E1E1C" d="M519.8 185.2c-54.1 18.6-133.9 45.7-198.8 104 54.4 10.4 196.2 27 278.6 22.4 147.8-8.2 268.5-41.8 288.8-78.1C777.2 202.9 576.9 165.6 519.8 185.2z"/><path fill="#1E1E1C" d="M979.3 351.3c-24.6-51.4-60.6-127.2-125.6-184.9 0-0.1-0.7-0.4-0.7-0.4 -123.5-30.5-344.6-67.7-407.1-49 -59.3 17.8-146.8 43.7-217 100 5.6 1 12.1 2 19.3 3.1 -11.6 8-23 16.6-34 26 7 1.2 15.4 2.6 24.7 4 -12.3 8.9-24.5 18.5-36.2 29 6.9 1.3 15.1 2.7 24.2 4.2 -8.8 7-17.4 14.3-25.9 22.1 8.9 1.6 19.6 3.4 31.8 5.2 -7.8 6.1-15.5 12.4-23 19.1 8.6 1.7 19.1 3.4 31 5.3 -6.8 5.4-13.5 10.9-20 16.8 66 12.6 237.8 32.7 337.7 27.2 122.8-6.8 230.2-28.1 293.5-55 1.7 43.8 5.1 87.6 10.9 121.1 25.3 145.9 68 263 106.3 278.9C994.6 608.6 1005.3 405.8 979.3 351.3zM852.9 167.5"/><path fill="#1E1E1C" d="M203.8 502.5c1.8 63.7-1.8 165.3 37.3 278.9 25.1-56.8 85.3-209.5 101.3-300.5 28.8-163.2 24.4-292-9.5-323C271.5 271.4 200.3 383.8 203.8 502.5z"/><path fill="#1E1E1C" d="M528.1 918.7c0 0 2-1 6.3-2.7 2.1-0.9 4.5-1.5 7.3-2.4 2.8-0.9 5.9-1.8 9.4-2.5 6.9-1.8 14.9-3.2 23.5-4.4 8.6-1.6 17.9-1.9 27.1-2.9 9.2-0.8 18.4-0.8 27.1-1.2 8.6-0.5 16.7-0.1 23.6 0 13.8 0.3 23 0.5 23 0.5 2 0 3.6 1.7 3.6 3.7 0 2-1.7 3.6-3.6 3.6l-0.2 0c0 0-9.1 0.1-22.8 0.2 -6.8 0.1-14.8-0.1-23.3 0.6 -8.5 0.6-17.6 0.8-26.6 1.9 -8.9 1.3-18 1.8-26.3 3.6 -8.3 1.4-16 3-22.4 4.9 -3.3 0.8-6.2 1.7-8.7 2.6 -2.5 0.9-4.9 1.5-6.4 2.3 -3.2 1.3-5.2 2.4-5.2 2.4 -2.8 1.5-6.3 0.4-7.8-2.4 -1.5-2.8-0.4-6.3 2.4-7.8C528 918.7 528 918.7 528.1 918.7L528.1 918.7z"/><path fill="#1E1E1C" d="M698.2 521.8c0 0 2.3 0.4 6.3 1.2 4.2 0.8 10.1 2 17 3.6 13.8 3.1 31.9 8.3 49.7 14.5 8.8 3.5 17.7 6.4 25.8 10.3 4 1.9 7.9 3.7 11.6 5.5 3.6 1.8 7.2 3.2 10.3 5.2 12.3 7.4 20.5 12.3 20.5 12.3 5.2 3.1 6.9 9.8 3.8 15 -2.9 4.9-9.1 6.7-14.1 4.2l-1.2-0.6c0 0-7.8-3.8-19.4-9.4 -2.8-1.6-6.3-2.5-9.8-3.9 -3.5-1.3-7.2-2.7-11-4.1 -7.6-2.9-16.3-4.9-24.6-7.4 -17-4.3-34.3-7.7-47.4-9.4 -6.6-1-11.9-1.6-15.5-1.9 -3.8-0.4-6-0.6-6-0.6l-0.4 0c-9.5-0.9-16.6-9.4-15.7-18.9 0.9-9.5 9.4-16.6 18.9-15.7C697.2 521.6 697.7 521.7 698.2 521.8z"/><path fill="#1E1E1C" d="M528.6 556.2c0 0-0.6 0-1.6 0.1 -1 0.1-2.5 0.1-4.4 0.2 -3.6 0.2-8.8 0.6-15.4 1.3 -6.5 0.5-14 2-22.1 3.1 -4 0.8-8.1 1.7-12.3 2.6 -4.2 1-8.6 1.6-12.7 2.9 -8.2 2.6-17 4.4-24.4 7.6 -7.5 3.1-14.9 5.4-20.5 8.4 -11.4 6-19.1 10.1-19.1 10.1l-1.3 0.7c-5.3 2.8-11.9 0.8-14.8-4.5 -2.7-5-1-11.2 3.7-14.3 0 0 8.1-5.2 20.2-13.1 6.1-4 13.8-7.1 21.8-11.3 8-4.3 17.1-7 26-10.7 4.4-1.9 9-2.9 13.5-4.4 4.5-1.3 8.9-2.8 13.2-4 8.7-2 16.7-4.3 23.8-5.5 7-1.4 13-2.5 17.4-3 4.1-0.6 6.5-0.9 6.5-0.9 9.5-1.3 18.2 5.4 19.5 14.9s-5.4 18.2-14.9 19.5c-0.6 0.1-1.1 0.1-1.7 0.1L528.6 556.2z"/><g opacity="0.47"><g opacity="0.29"><path fill="#FFFFFF" d="M933.8 578.5l21.7 76.7c0.1 0.2-0.1 0.4-0.2 0.4 -0.2 0.1-0.4-0.1-0.4-0.2l-24.3-75.9c-0.3-0.9 0.2-1.9 1.1-2.2C932.5 577 933.5 577.5 933.8 578.5 933.8 578.4 933.8 578.5 933.8 578.5z"/></g><g opacity="0.29"><path fill="#FFFFFF" d="M929.2 534.4l21.7 76.8c0.1 0.2-0.1 0.4-0.2 0.4 -0.2 0.1-0.4-0.1-0.4-0.2l-24.3-76c-0.3-0.9 0.2-1.9 1.1-2.2S928.9 533.4 929.2 534.4C929.2 534.4 929.2 534.4 929.2 534.4z"/></g><g opacity="0.29"><path fill="#FFFFFF" d="M924.6 490.3l21.7 76.8c0.1 0.2-0.1 0.4-0.2 0.4 -0.2 0.1-0.4-0.1-0.4-0.2l-24.3-76c-0.3-0.9 0.2-1.9 1.1-2.2C923.3 488.9 924.3 489.4 924.6 490.3 924.6 490.3 924.6 490.3 924.6 490.3z"/></g><g opacity="0.29"><path fill="#FFFFFF" d="M920 446.3l21.7 76.8c0.1 0.2-0.1 0.4-0.2 0.4 -0.2 0.1-0.4-0.1-0.4-0.2l-24.3-76c-0.3-0.9 0.2-1.9 1.1-2.2C918.7 444.8 919.7 445.3 920 446.3 920 446.2 920 446.2 920 446.3z"/></g><g opacity="0.29"><path fill="#FFFFFF" d="M915.4 402.2l21.7 76.8c0.1 0.2-0.1 0.4-0.2 0.4 -0.2 0.1-0.4-0.1-0.4-0.2l-24.3-76c-0.3-0.9 0.2-1.9 1.1-2.2C914.1 400.7 915.1 401.2 915.4 402.2 915.4 402.1 915.4 402.2 915.4 402.2z"/></g><g opacity="0.29"><path fill="#FFFFFF" d="M910.8 358.1l21.7 76.8c0.1 0.2-0.1 0.4-0.2 0.4 -0.2 0.1-0.4-0.1-0.4-0.2l-24.3-76c-0.3-0.9 0.2-1.9 1.1-2.2C909.5 356.6 910.5 357.1 910.8 358.1 910.8 358.1 910.8 358.1 910.8 358.1z"/></g></g><g opacity="0.47"><g opacity="0.29"><path fill="#FFFFFF" d="M271.7 579.5l-24.3 75.9c-0.1 0.2-0.2 0.3-0.4 0.2 -0.2-0.1-0.3-0.2-0.2-0.4l21.7-76.7c0.3-0.9 1.2-1.5 2.1-1.2C271.4 577.6 272 578.5 271.7 579.5 271.7 579.4 271.7 579.5 271.7 579.5z"/></g><g opacity="0.29"><path fill="#FFFFFF" d="M276.3 535.4l-24.3 76c-0.1 0.2-0.2 0.3-0.4 0.2 -0.2-0.1-0.3-0.2-0.2-0.4l21.7-76.8c0.3-0.9 1.2-1.5 2.1-1.2C276 533.5 276.6 534.4 276.3 535.4 276.3 535.4 276.3 535.4 276.3 535.4z"/></g><g opacity="0.29"><path fill="#FFFFFF" d="M280.9 491.3l-24.3 76c-0.1 0.2-0.2 0.3-0.4 0.2 -0.2-0.1-0.3-0.2-0.2-0.4l21.7-76.8c0.3-0.9 1.2-1.5 2.1-1.2C280.6 489.4 281.2 490.4 280.9 491.3 280.9 491.3 280.9 491.3 280.9 491.3z"/></g><g opacity="0.29"><path fill="#FFFFFF" d="M285.5 447.3l-24.3 76c-0.1 0.2-0.2 0.3-0.4 0.2 -0.2-0.1-0.3-0.2-0.2-0.4l21.7-76.8c0.3-0.9 1.2-1.5 2.1-1.2C285.2 445.3 285.8 446.3 285.5 447.3 285.5 447.2 285.5 447.2 285.5 447.3z"/></g><g opacity="0.29"><path fill="#FFFFFF" d="M290.1 403.2l-24.3 76c-0.1 0.2-0.2 0.3-0.4 0.2 -0.2-0.1-0.3-0.2-0.2-0.4l21.7-76.8c0.3-0.9 1.2-1.5 2.1-1.2C289.8 401.2 290.3 402.2 290.1 403.2 290.1 403.1 290.1 403.2 290.1 403.2z"/></g><g opacity="0.29"><path fill="#FFFFFF" d="M294.7 359.1l-24.3 76c-0.1 0.2-0.2 0.3-0.4 0.2 -0.2-0.1-0.3-0.2-0.2-0.4l21.7-76.8c0.3-0.9 1.2-1.5 2.1-1.2C294.4 357.2 294.9 358.1 294.7 359.1 294.7 359.1 294.7 359.1 294.7 359.1z"/></g></g><path fill="#FFFFFF" d="M523.5 616c0 24-19.5 43.5-43.5 43.5 -24 0-43.5-19.5-43.5-43.5 0-24 19.5-43.5 43.5-43.5C504 572.5 523.5 592 523.5 616z"/><path fill="#422A19" d="M507.4 616c0 15.1-12.2 27.4-27.4 27.4 -15.1 0-27.4-12.2-27.4-27.4s12.2-27.4 27.4-27.4C495.1 588.6 507.4 600.9 507.4 616z"/><circle fill="#1E1E1C" cx="480" cy="616" r="8.7"/><path fill="#FFFFFF" d="M491.7 601.7c0 2.9-2.3 5.3-5.2 5.3 -2.9 0-5.3-2.4-5.3-5.3 0-2.9 2.3-5.3 5.3-5.3C489.4 596.4 491.7 598.8 491.7 601.7z"/><path fill="#FFFFFF" d="M479.9 607.8c0 1.2-1 2.2-2.2 2.2 -1.2 0-2.2-1-2.2-2.2 0-1.2 1-2.2 2.2-2.2C478.9 605.5 479.9 606.5 479.9 607.8z"/><path fill="#FFFFFF" d="M696.5 616c0 24 19.5 43.5 43.5 43.5 24 0 43.5-19.5 43.5-43.5 0-24-19.5-43.5-43.5-43.5C716 572.5 696.5 592 696.5 616z"/><path fill="#422A19" d="M712.6 616c0 15.1 12.2 27.4 27.4 27.4 15.1 0 27.4-12.2 27.4-27.4s-12.2-27.4-27.4-27.4C724.9 588.6 712.6 600.9 712.6 616z"/><circle fill="#1E1E1C" cx="740" cy="616" r="8.7"/><path fill="#FFFFFF" d="M728.3 601.7c0 2.9 2.3 5.3 5.2 5.3 2.9 0 5.3-2.4 5.3-5.3 0-2.9-2.3-5.3-5.3-5.3C730.6 596.4 728.3 598.8 728.3 601.7z"/><path fill="#FFFFFF" d="M740.2 607.8c0 1.2 1 2.2 2.2 2.2 1.2 0 2.2-1 2.2-2.2 0-1.2-1-2.2-2.2-2.2C741.1 605.5 740.2 606.5 740.2 607.8z"/><path fill="#424141" d="M799.2 1049.9c-9.6 20.8-20.1 41.2-31 61.4 -15.7 28.9-32.3 57.4-49.4 85.5 4.4-0.8 8.8-1.7 13.1-2.7 14.6-26.3 28.8-52.8 42.2-79.7 10.2-20.6 20.1-41.5 29-62.7 8.7-21.3 16.8-43.2 20.4-66.1l-0.6-0.3C818.6 1007.5 808.6 1029.1 799.2 1049.9z"/><path fill="#424141" d="M673.4 1177.2c-3.1-4.3-6.4-8.3-9.7-12.5 -3.3-4.1-6.6-8.2-10-12.2 -6.7-8.1-13.9-15.9-21.2-23.5l-8.3 8.1c7.1 7.4 14 15 20.6 22.9 3.4 3.9 6.6 7.9 9.8 11.9 3.2 4 6.5 8 9.5 12.2 4.7 6.2 9.2 12.5 13.6 18.9 4.3-0.5 8.6-1.1 12.8-1.7C685.1 1193.1 679.4 1185.1 673.4 1177.2z"/><path fill="#424141" d="M569.1 1129.8c-7.7 7.5-15.2 15.2-22.3 23.3 -3.6 3.9-7.1 8-10.5 12.1 -3.4 4.1-7 8.1-10.2 12.4 -5.7 7.2-11.2 14.6-16.4 22.2 4.2 0.7 8.5 1.3 12.8 1.9 4.1-5.7 8.3-11.4 12.7-16.9 3.1-4.2 6.6-8.1 9.9-12.1 3.3-4.1 6.7-8 10.3-11.9 6.9-7.9 14.2-15.3 21.6-22.6L569.1 1129.8zM399 1050.3c-9.4-20.9-19.1-42.4-23.5-64.8l-0.9 0.2c3.7 23 11.7 45.1 20.4 66.4 8.9 21.3 18.8 42.2 29 62.9 12.7 25.5 26.1 50.7 39.9 75.7 4.4 1.1 8.7 2.1 13.1 3 -16.3-26.9-32.1-54.2-47.1-81.8C419.1 1091.6 408.6 1071.1 399 1050.3z"/><path fill="#1E1E1C" d="M569.2 1137l-30.4 36.8 23 32.2c14.4 1 29 1.5 43.7 1.5 10.9 0 21.8-0.3 32.5-0.9l21.2-29.2 -28.9-40.4H569.2z"/><path fill="#2D2E2C" d="M318 1133.9c4.4-22.7 8.9-45.4 12.7-68.2 4.3-24.3 8.4-48.6 11.9-73l-0.9-0.2c-6.6 23.8-12.6 47.7-18.4 71.7 -5.4 21.5-10.2 43.1-15.1 64.7 18 10.3 36.5 19.6 55.6 28l2.7-3 -7.6-3.2C345.4 1144.9 331.7 1139.3 318 1133.9zM885.8 1136l-35.6-145.5 -0.9 0.2 24.3 142.9 -40.5 17 -7.5 3.2 5.5 6.1 2.4 2.7c18-7.4 35.6-15.7 52.7-24.8L885.8 1136z"/></svg>