<?xml version="1.0" encoding="UTF-8" standalone="no"?>
<svg width="241px" height="268px" viewBox="0 0 241 268" version="1.1" xmlns="http://www.w3.org/2000/svg" xmlns:xlink="http://www.w3.org/1999/xlink" xmlns:sketch="http://www.bohemiancoding.com/sketch/ns">
    <!-- Generator: Sketch 3.3.3 (12081) - http://www.bohemiancoding.com/sketch -->
    <title>Untitled</title>
    <desc>Created with Sketch.</desc>
    <defs></defs>
    <g id="Page-1" stroke="none" stroke-width="1" fill="none" fill-rule="evenodd" sketch:type="MSPage">
        <g id="design" sketch:type="MSLayerGroup">
            <g id="Group" sketch:type="MSShapeGroup">
                <path d="M0.47,78.7 C0.47,71.16 5.86,61.91 12.39,58.14 L108.31,2.83 C114.84,-0.94 125.55,-0.94 132.08,2.83 L228.29,58.14 C234.82,61.91 240.47,71.16 240.47,78.7 L240.47,189.3 C240.47,196.84 234.83,206.09 228.29,209.86 L132.24,265.17 C125.71,268.94 114.94,268.94 108.41,265.17 L12.43,209.86 C5.9,206.1 0.47,196.84 0.47,189.3 L0.47,78.7 L0.47,78.7 Z" id="Shape" fill="#8E44AD"></path>
                <path d="M202.47,208.64 C202.47,213.37 199.76,217.5 195.37,217.5 L44.39,217.5 C40,217.5 36.47,213.37 36.47,208.64 L36.47,58.88 C36.47,54.15 40,51.5 44.39,51.5 L195.37,51.5 C199.76,51.5 202.47,54.15 202.47,58.88 L202.47,208.64 L202.47,208.64 Z" id="Shape" fill="#2EABE2"></path>
                <g id="XMLID_21_" transform="translate(35.000000, 51.000000)" fill="#CDCCCC">
                    <rect id="Rectangle-path" x="0.73" y="146.86" width="165.99" height="0.86"></rect>
                    <rect id="Rectangle-path" x="0.73" y="128.37" width="165.99" height="0.86"></rect>
                    <rect id="Rectangle-path" x="0.73" y="109.88" width="165.99" height="0.86"></rect>
                    <rect id="Rectangle-path" x="0.73" y="91.39" width="165.99" height="0.86"></rect>
                    <rect id="Rectangle-path" x="0.73" y="72.9" width="165.99" height="0.86"></rect>
                    <rect id="Rectangle-path" x="0.73" y="54.42" width="165.99" height="0.86"></rect>
                    <rect id="Rectangle-path" x="0.73" y="35.93" width="165.99" height="0.86"></rect>
                    <rect id="Rectangle-path" x="0.73" y="17.44" width="165.99" height="0.86"></rect>
                    <rect id="Rectangle-path" x="148.78" y="0.31" width="0.86" height="166.39"></rect>
                    <rect id="Rectangle-path" x="130.33" y="0.31" width="0.86" height="166.39"></rect>
                    <rect id="Rectangle-path" x="111.89" y="0.31" width="0.86" height="166.39"></rect>
                    <rect id="Rectangle-path" x="93.45" y="0.31" width="0.86" height="166.39"></rect>
                    <rect id="Rectangle-path" x="75" y="0.31" width="0.86" height="166.39"></rect>
                    <rect id="Rectangle-path" x="56.56" y="0.31" width="0.86" height="166.39"></rect>
                    <rect id="Rectangle-path" x="38.11" y="0.31" width="0.86" height="166.39"></rect>
                    <rect id="Rectangle-path" x="19.67" y="0.31" width="0.86" height="166.39"></rect>
                </g>
                <path d="M191.48,169.97 L188.55,165.35 L190.32,165.35 L191.61,167.48 C191.91,168 192.23,168.56 192.57,169.09 L192.65,169.09 C192.93,168.55 193.23,168 193.53,167.48 L194.7,165.35 L196.41,165.35 L193.48,170.15 L196.63,175.03 L194.86,175.03 L193.45,172.78 C193.11,172.2 192.75,171.61 192.4,171.05 L192.32,171.05 C191.98,171.61 191.66,172.19 191.35,172.78 L190.04,175.03 L188.33,175.03 L191.48,169.97 L191.48,169.97 Z" id="Shape" fill="#FFFFFF"></path>
                <path d="M40.69,136.22 C41.45,136.98 42.4,137.67 43.89,137.67 C45.44,137.67 46.68,136.54 46.68,134.76 C46.68,133.01 45.61,131.97 43.97,131.97 C43.09,131.97 42.56,132.25 41.8,132.75 L40.92,132.19 L41.34,126.08 L47.69,126.08 L47.69,127.49 L42.77,127.49 L42.43,131.25 C43.03,130.93 43.61,130.73 44.38,130.73 C46.55,130.73 48.32,131.96 48.32,134.71 C48.32,137.46 46.25,139.01 44.04,139.01 C42.01,139.01 40.76,138.15 39.88,137.28 L40.69,136.22 L40.69,136.22 Z" id="Shape" fill="#FFFFFF"></path>
                <path d="M52.74,133.74 L49.81,129.12 L51.58,129.12 L52.87,131.25 C53.17,131.77 53.49,132.33 53.83,132.86 L53.91,132.86 C54.19,132.32 54.49,131.77 54.79,131.25 L55.96,129.12 L57.67,129.12 L54.74,133.92 L57.89,138.8 L56.12,138.8 L54.71,136.55 C54.37,135.97 54.01,135.38 53.66,134.82 L53.58,134.82 C53.24,135.38 52.92,135.96 52.61,136.55 L51.3,138.8 L49.57,138.8 L52.74,133.74 L52.74,133.74 Z" id="Shape" fill="#FFFFFF"></path>
                <rect id="Rectangle-path" fill="#F2F2F2" x="180.47" y="179.5" width="9" height="2"></rect>
                <rect id="Rectangle-path" fill="#F2F2F2" x="180.47" y="160.5" width="9" height="2"></rect>
                <rect id="Rectangle-path" fill="#F2F2F2" x="183.47" y="160.5" width="2" height="19"></rect>
                <rect id="Rectangle-path" fill="#E6E6E6" x="58.47" y="179.5" width="9" height="2"></rect>
                <rect id="Rectangle-path" fill="#E6E6E6" x="58.47" y="85.5" width="9" height="2"></rect>
                <rect id="Rectangle-path" fill="#E6E6E6" x="62.47" y="85.5" width="1" height="96"></rect>
                <path d="M147.58,87.5 L129.09,87.5 L110.6,87.5 L92.12,87.5 L74.47,87.5 L74.47,100.03 L74.47,118.47 L74.47,136.91 L74.47,155.35 L74.47,179.5 L92.12,179.5 L110.61,179.5 L129.1,179.5 L147.59,179.5 L166.48,179.5 L166.48,155.36 L166.48,136.92 L166.48,118.48 L166.48,100.03 L166.48,87.5 L147.58,87.5 L147.58,87.5 Z M147.47,117.48 L147.47,136.37 L147.47,160.5 L129.47,160.5 L129.47,141.5 L111.47,141.5 L111.47,160.5 L93.47,160.5 L93.47,136.37 L93.47,117.48 L93.47,105.5 L111.47,105.5 L111.47,124.5 L129.47,124.5 L129.47,105.5 L147.47,105.5 L147.47,117.48 L147.47,117.48 Z" id="Shape" stroke="#FFFFFF" stroke-width="2"></path>
            </g>
        </g>
    </g>
</svg>