<?xml version="1.0" encoding="UTF-8" standalone="no"?>
<svg width="241px" height="268px" viewBox="0 0 241 268" version="1.1" xmlns="http://www.w3.org/2000/svg" xmlns:xlink="http://www.w3.org/1999/xlink" xmlns:sketch="http://www.bohemiancoding.com/sketch/ns">
    <!-- Generator: Sketch 3.3.3 (12081) - http://www.bohemiancoding.com/sketch -->
    <title>Untitled</title>
    <desc>Created with Sketch.</desc>
    <defs></defs>
    <g id="Page-1" stroke="none" stroke-width="1" fill="none" fill-rule="evenodd" sketch:type="MSPage">
        <g id="editorial" sketch:type="MSLayerGroup">
            <g id="Group" sketch:type="MSShapeGroup">
                <path d="M0.83,78.7 C0.83,71.16 6.75,61.91 13.28,58.14 L109.44,2.83 C115.97,-0.94 126.8,-0.94 133.34,2.83 L229.09,58.14 C235.62,61.91 240.84,71.16 240.84,78.7 L240.84,189.3 C240.84,196.84 235.7,206.09 229.16,209.86 L133.39,265.17 C126.86,268.94 116.22,268.94 109.69,265.17 L13.27,209.86 C6.74,206.09 0.85,196.84 0.85,189.3 L0.85,78.7 L0.83,78.7 Z" id="Shape" fill="#8E44AD"></path>
                <path d="M24.92,234.42 L24.92,58.99 L89.31,33.76 L153.7,59 L218.09,33.77 L218.09,209.2 L153.7,234.43 L89.31,209.2 L24.92,234.42 L24.92,234.42 Z" id="Shape" fill="#F2F2F2"></path>
                <path d="M37.43,217.3 L37.22,69.24 L89.33,48.31 L153.37,74.1 L206.84,52.35 L206.84,200.88 L153.69,222.5 L89.28,197.8 L37.43,217.3 L37.43,217.3 Z" id="Shape" fill="#2EABE2"></path>
                <path d="M206.85,201.31 L206.85,117.5 C200,118.32 193.19,118.24 188.41,127.63 C178.7,128.29 171.08,134.63 171.08,142.36 C171.08,144.81 172.22,150.79 170.15,152.09 C164.82,155.43 156.22,158.35 153.87,166.27 C153.17,166.23 152.47,166.19 151.76,166.19 L139.53,166.19 C122.46,166.19 108.62,176.97 108.62,190.27 L108.62,199.8 C108.62,201.83 108.98,203.8 109.59,205.68 L153.67,222.55 L206.85,201.31 L206.85,201.31 Z" id="Shape" fill="#4DB58D"></path>
                <path d="M89.31,48.29 L37.21,69.18 L37.28,122.32 C44.57,119.66 63.09,111.32 62.68,95.92 C62.25,79.63 64.04,70.73 76.1,72.61 C84.15,73.86 105.24,70.09 111.62,67.16 C113.83,66.15 116.35,62.92 118.62,60.11 L89.31,48.29 L89.31,48.29 Z" id="Shape" fill="#DCB78D"></path>
                <path d="M89.31,33.75 L89.31,209.18 L153.7,234.42 L153.7,58.99 L89.31,33.75 L89.31,33.75 Z" id="Shape" opacity="0.2" fill="#2D3E50"></path>
                <path d="M41.37,97.1 L41.32,90.22 L84.68,72.77 L84.59,79.88 L41.37,97.1 Z" id="Shape" fill="#808081"></path>
                <path d="M93.53,117.3 L93.7,132.14 L145.61,152.82 L145.74,138.32 L93.53,117.3 Z" id="Shape" fill="#808081"></path>
                <path d="M42.44,108.7 L42.5,104.44 L84.54,87.51 L84.57,91.77 L42.44,108.7 Z" id="Shape" fill="#CDCCCC"></path>
                <path d="M42.44,116.73 L42.5,112.46 L84.54,95.53 L84.57,99.8 L42.44,116.73 Z" id="Shape" fill="#CDCCCC"></path>
                <path d="M42.44,124.75 L42.5,120.49 L84.54,103.56 L84.57,107.82 L42.44,124.75 Z" id="Shape" fill="#CDCCCC"></path>
                <path d="M42.44,132.78 L42.5,128.52 L84.54,111.59 L84.57,115.85 L42.44,132.78 Z" id="Shape" fill="#CDCCCC"></path>
                <path d="M42.44,140.81 L42.5,136.54 L84.54,119.61 L84.57,123.88 L42.44,140.81 Z" id="Shape" fill="#CDCCCC"></path>
                <path d="M42.44,148.83 L42.5,144.57 L84.54,127.64 L84.57,131.9 L42.44,148.83 Z" id="Shape" fill="#CDCCCC"></path>
                <path d="M157.28,179.5 L157.22,172.77 L199.61,155.71 L199.53,162.66 L157.28,179.5 Z" id="Shape" fill="#808081"></path>
                <path d="M158.32,190.84 L158.37,186.67 L199.48,170.12 L199.51,174.29 L158.32,190.84 Z" id="Shape" fill="#CDCCCC"></path>
                <path d="M158.32,198.69 L158.37,194.52 L199.48,177.97 L199.51,182.13 L158.32,198.69 Z" id="Shape" fill="#CDCCCC"></path>
                <path d="M158.32,206.54 L158.37,202.37 L199.48,185.81 L199.51,189.98 L158.32,206.54 Z" id="Shape" fill="#CDCCCC"></path>
                <path d="M158.32,214.38 L158.37,210.21 L199.48,193.66 L199.51,197.83 L158.32,214.38 Z" id="Shape" fill="#CDCCCC"></path>
            </g>
        </g>
    </g>
</svg>