<?xml version="1.0" encoding="utf-8"?>
<!-- Generator: Adobe Illustrator 17.0.0, SVG Export Plug-In . SVG Version: 6.00 Build 0)  -->
<!DOCTYPE svg PUBLIC "-//W3C//DTD SVG 1.1//EN" "http://www.w3.org/Graphics/SVG/1.1/DTD/svg11.dtd">
<svg version="1.1" id="Capa_1" xmlns="http://www.w3.org/2000/svg" xmlns:xlink="http://www.w3.org/1999/xlink" x="0px" y="0px"
	 width="30px" height="180px" viewBox="0 0 30 180" enable-background="new 0 0 30 180" xml:space="preserve">
<g>
	<path id="email-3-icon" fill="#969696" d="M15.001,76.022L2.979,66.059h24.076L15.001,76.022z M14.999,79.271L2.93,69.272v14.669
		H27.07V69.296L14.999,79.271z"/>
</g>
<g>
	<path id="email-3-icon_1_" fill="#3C3C3C" d="M15.001,106.022L2.979,96.059h24.076L15.001,106.022z M14.999,109.271L2.93,99.272
		v14.669H27.07V99.296L14.999,109.271z"/>
</g>
<g>
	<path id="user-icon" fill="#969696" d="M23.869,21.121c-3.459-0.798-6.679-1.497-5.12-4.437c4.747-8.949,1.258-13.735-3.754-13.735
		c-5.111,0-8.514,4.969-3.754,13.735c1.606,2.958-1.735,3.656-5.12,4.437c-3.458,0.797-3.192,2.62-3.192,5.928h24.131
		C27.061,23.741,27.327,21.918,23.869,21.121z"/>
</g>
<g>
	<path id="user-icon_1_" fill="#3C3C3C" d="M23.869,51.121c-3.459-0.798-6.679-1.497-5.12-4.437
		c4.747-8.949,1.258-13.735-3.754-13.735c-5.111,0-8.514,4.969-3.754,13.735c1.606,2.958-1.735,3.656-5.12,4.437
		c-3.458,0.797-3.192,2.62-3.192,5.928h24.131C27.061,53.741,27.327,51.918,23.869,51.121z"/>
</g>
<g>
	<path id="pencil-10-icon" fill="#787878" d="M10.1,145.685L10.1,145.685l-7.17,1.323l1.446-7.047l0,0L10.1,145.685z
		 M21.347,122.991l-2.568,2.568l5.724,5.723l2.568-2.568L21.347,122.991z M5.659,138.679l5.723,5.723l11.837-11.837l-5.723-5.724
		L5.659,138.679z"/>
</g>
<g>
	<path id="pencil-10-icon_1_" fill="#3C3C3C" d="M10.1,175.685L10.1,175.685l-7.17,1.323l1.446-7.047l0,0L10.1,175.685z
		 M21.347,152.991l-2.568,2.568l5.724,5.723l2.568-2.568L21.347,152.991z M5.659,168.679l5.723,5.723l11.837-11.837l-5.723-5.724
		L5.659,168.679z"/>
</g>
</svg>
