<svg xmlns="http://www.w3.org/2000/svg" width="241" height="268" viewBox="0 0 241 268"><style>.a{fill:#010202;}.b{fill:#2EABE2;}.c{fill:#808081;}.d{fill:#CDCCCC;}</style><title>  Untitled</title><desc>  Created with Sketch.</desc><defs><linearGradient x1="54.4" y1="54.4" x2="45.6" y2="45.6"><stop stop-color="#FFFFFF" offset="0%"/><stop stop-color="#FAFAFA" offset="10%"/><stop stop-color="#EBEBEB" offset="23%"/><stop stop-color="#D3D3D3" offset="36%"/><stop stop-color="#B2B2B2" offset="50%"/><stop stop-color="#868686" offset="65%"/><stop stop-color="#515151" offset="80%"/><stop stop-color="#141414" offset="95%"/><stop stop-color="#000000" offset="100%"/></linearGradient><linearGradient x1="54.4" y1="54.4" x2="45.6" y2="45.6"><stop stop-color="#FFFFFF" offset="0%"/><stop stop-color="#000000" offset="100%"/></linearGradient><linearGradient x1="54.4" y1="54.4" x2="45.7" y2="45.6"><stop stop-color="#FFFFFF" offset="0%"/><stop stop-color="#000000" offset="100%"/></linearGradient></defs><g fill="none"><path d="M0.8 78.7C0.8 71.2 6.5 61.9 13 58.1L109.1 2.8C115.7-0.9 126.5-0.9 133 2.8L228.9 58.1C235.4 61.9 240.8 71.2 240.8 78.7L240.8 189.3C240.8 196.8 235.5 206.1 229 209.9L133.1 265.2C126.5 268.9 115.9 268.9 109.3 265.2L13 209.9C6.5 206.1 0.8 196.8 0.8 189.3L0.8 78.7 0.8 78.7Z" fill="#8E44AD"/><rect transform="translate(121.216562 134.002909)rotate(-45)" x="-25.9" y="-112.6" width="51.8" height="225.2" fill="#F9EA32"/><rect transform="translate(48.938009 90.010333)rotate(-45)" x="-5.9" y="-0.7" width="11.8" height="1.5" class="a"/><rect transform="translate(42.132872 86.335255)rotate(-45)" x="-3.7" y="-0.7" width="7.4" height="1.5" class="a"/><rect transform="translate(37.382064 81.593272)rotate(-45)" x="-3.7" width="7.4" height="-0.1" class="a"/><rect transform="translate(36.891864 81.097855)rotate(-45)" x="-3.7" y="-0.7" width="7.4" height="1.5" class="a"/><rect transform="translate(31.650856 75.860355)rotate(-45)" x="-3.7" y="-0.7" width="7.4" height="1.5" class="a"/><rect transform="translate(69.887799 110.960032)rotate(-45)" x="-5.9" y="-0.7" width="11.8" height="1.5" class="a"/><rect transform="translate(63.082662 107.284955)rotate(-45)" x="-3.7" y="-0.7" width="7.4" height="1.5" class="a"/><rect transform="translate(57.841654 102.047556)rotate(-45)" x="-3.7" y="-0.7" width="7.4" height="1.5" class="a"/><rect transform="translate(52.600646 96.810155)rotate(-45)" x="-3.7" y="-0.7" width="7.4" height="1.5" class="a"/><rect transform="translate(90.830618 131.902762)rotate(-45)" x="-5.9" y="-0.7" width="11.8" height="1.5" class="a"/><rect transform="translate(84.032452 128.234756)rotate(-45)" x="-3.7" y="-0.7" width="7.4" height="1.5" class="a"/><rect transform="translate(78.791545 122.997355)rotate(-45)" x="-3.7" y="-0.7" width="7.4" height="1.5" class="a"/><rect transform="translate(73.550536 117.759855)rotate(-45)" x="-3.7" y="-0.7" width="7.4" height="1.5" class="a"/><rect transform="translate(111.780409 152.852462)rotate(-45)" x="-5.9" y="-0.7" width="11.8" height="1.5" class="a"/><rect transform="translate(104.982342 149.184455)rotate(-45)" x="-3.7" y="-0.7" width="7.4" height="1.5" class="a"/><rect transform="translate(99.741334 143.947056)rotate(-45)" x="-3.7" y="-0.7" width="7.4" height="1.5" class="a"/><rect transform="translate(94.500327 138.709655)rotate(-45)" x="-3.7" y="-0.7" width="7.4" height="1.5" class="a"/><rect transform="translate(132.730199 173.802161)rotate(-45)" x="-5.9" y="-0.7" width="11.8" height="1.5" class="a"/><rect transform="translate(125.932133 170.134255)rotate(-45)" x="-3.7" y="-0.7" width="7.4" height="1.5" class="a"/><rect transform="translate(120.691124 164.896755)rotate(-45)" x="-3.7" y="-0.7" width="7.4" height="1.5" class="a"/><rect transform="translate(115.450116 159.659356)rotate(-45)" x="-3.7" y="-0.7" width="7.4" height="1.5" class="a"/><rect transform="translate(153.680088 194.751961)rotate(-45)" x="-5.9" y="-0.7" width="11.8" height="1.5" class="a"/><rect transform="translate(146.874851 191.091026)rotate(-45)" x="-3.7" y="-0.7" width="7.4" height="1.5" class="a"/><rect transform="translate(141.641015 185.846556)rotate(-45)" x="-3.7" y="-0.7" width="7.4" height="1.5" class="a"/><rect transform="translate(136.400007 180.609156)rotate(-45)" x="-3.7" y="-0.7" width="7.4" height="1.5" class="a"/><rect transform="translate(174.629879 215.701662)rotate(-45)" x="-5.9" y="-0.7" width="11.8" height="1.5" class="a"/><rect transform="translate(167.824742 212.040826)rotate(-45)" x="-3.7" y="-0.7" width="7.4" height="1.5" class="a"/><rect transform="translate(162.590804 206.796255)rotate(-45)" x="-3.7" y="-0.7" width="7.4" height="1.5" class="a"/><rect transform="translate(157.349797 201.558855)rotate(-45)" x="-3.7" y="-0.7" width="7.4" height="1.5" class="a"/><rect transform="translate(183.540594 227.746055)rotate(-45)" x="-3.7" y="-0.7" width="7.4" height="1.5" class="a"/><rect transform="translate(178.299586 222.508555)rotate(-45)" x="-3.7" y="-0.7" width="7.4" height="1.5" class="a"/><rect transform="translate(62.548172 40.774762)rotate(-45)" x="-1.5" y="-0.7" width="3" height="1.5" class="a"/><rect transform="translate(65.701302 43.917162)rotate(-45)" x="-1.5" y="-0.7" width="3" height="1.5" class="a"/><rect transform="translate(68.84019 47.059662)rotate(-45)" x="-1.5" y="-0.7" width="3" height="1.5" class="a"/><rect transform="translate(69.360403 50.720621)rotate(-45)" x="-3.7" y="-0.7" width="7.4" height="1.5" class="a"/><rect transform="translate(74.081198 52.297062)rotate(-45)" x="-1.5" y="-0.7" width="3" height="1.5" class="a"/><rect transform="translate(77.220186 55.439562)rotate(-45)" x="-1.5" y="-0.7" width="3" height="1.5" class="a"/><rect transform="translate(80.359074 58.582062)rotate(-45)" x="-1.5" y="-0.7" width="3" height="1.5" class="a"/><rect transform="translate(81.930297 63.290421)rotate(-45)" x="-3.7" y="-0.7" width="7.4" height="1.5" class="a"/><rect transform="translate(86.651092 64.866962)rotate(-45)" x="-1.5" y="-0.7" width="3" height="1.5" class="a"/><rect transform="translate(89.79008 68.009462)rotate(-45)" x="-1.5" y="-0.7" width="3" height="1.5" class="a"/><rect transform="translate(92.375129 70.592807)rotate(-45)" x="-1.5" y="0.1" width="3" height="-0.1" class="a"/><rect transform="translate(93.456252 74.819891)rotate(-45)" x="-3.7" y="-0.7" width="7.4" height="1.5" class="a"/><rect transform="translate(98.169976 76.389262)rotate(-45)" x="-1.5" y="-0.7" width="3" height="1.5" class="a"/><rect transform="translate(101.308864 79.531762)rotate(-45)" x="-1.5" y="-0.7" width="3" height="1.5" class="a"/><rect transform="translate(104.447852 82.674262)rotate(-45)" x="-1.5" y="-0.7" width="3" height="1.5" class="a"/><rect transform="translate(106.026146 87.389691)rotate(-45)" x="-3.7" y="-0.7" width="7.4" height="1.5" class="a"/><rect transform="translate(110.73987 88.959162)rotate(-45)" x="-1.5" y="-0.7" width="3" height="1.5" class="a"/><rect transform="translate(113.878758 92.101662)rotate(-45)" x="-1.5" y="-0.7" width="3" height="1.5" class="a"/><rect transform="translate(115.980878 94.196562)rotate(-45)" x="-1.5" y="-0.7" width="3" height="1.5" class="a"/><rect transform="translate(117.552101 98.90502)rotate(-45)" x="-3.7" y="-0.7" width="7.4" height="1.5" class="a"/><rect transform="translate(122.258754 100.481562)rotate(-45)" x="-1.5" y="-0.7" width="3" height="1.5" class="a"/><rect transform="translate(125.397642 103.623962)rotate(-45)" x="-1.5" y="-0.7" width="3" height="1.5" class="a"/><rect transform="translate(128.550772 106.766462)rotate(-45)" x="-1.5" y="-0.7" width="3" height="1.5" class="a"/><rect transform="translate(130.121995 111.47482)rotate(-45)" x="-3.7" y="-0.7" width="7.4" height="1.5" class="a"/><rect transform="translate(134.828648 113.051362)rotate(-45)" x="-1.5" y="-0.7" width="3" height="1.5" class="a"/><rect transform="translate(137.413797 115.634707)rotate(-45)" x="-1.5" width="3" height="-0.1" class="a"/><rect transform="translate(140.069656 118.288762)rotate(-45)" x="-1.5" y="-0.7" width="3" height="1.5" class="a"/><rect transform="translate(141.64088 122.99722)rotate(-45)" x="-3.7" y="-0.7" width="7.4" height="1.5" class="a"/><rect transform="translate(146.347532 124.573762)rotate(-45)" x="-1.5" y="-0.7" width="3" height="1.5" class="a"/><rect transform="translate(149.48642 127.716162)rotate(-45)" x="-1.5" y="-0.7" width="3" height="1.5" class="a"/><rect transform="translate(152.63955 130.858662)rotate(-45)" x="-1.5" y="-0.7" width="3" height="1.5" class="a"/><rect transform="translate(154.210773 135.567021)rotate(-45)" x="-3.7" y="-0.7" width="7.4" height="1.5" class="a"/><rect transform="translate(158.917426 137.143562)rotate(-45)" x="-1.5" y="-0.7" width="3" height="1.5" class="a"/><rect transform="translate(161.019446 139.238562)rotate(-45)" x="-1.5" y="-0.7" width="3" height="1.5" class="a"/><rect transform="translate(164.158334 142.381062)rotate(-45)" x="-1.5" y="-0.7" width="3" height="1.5" class="a"/><rect transform="translate(165.729658 147.089421)rotate(-45)" x="-3.7" y="-0.7" width="7.4" height="1.5" class="a"/><rect transform="translate(170.443281 148.658891)rotate(-45)" x="-1.5" y="-0.7" width="3" height="1.5" class="a"/><rect transform="translate(173.58934 151.808362)rotate(-45)" x="-1.5" y="-0.7" width="3" height="1.5" class="a"/><rect transform="translate(176.728228 154.950862)rotate(-45)" x="-1.5" y="-0.7" width="3" height="1.5" class="a"/><rect transform="translate(178.299451 159.659221)rotate(-45)" x="-3.7" y="-0.7" width="7.4" height="1.5" class="a"/><rect transform="translate(182.452365 160.676707)rotate(-45)" x="-1.5" y="0.1" width="3" height="-0.1" class="a"/><rect transform="translate(185.108224 163.330762)rotate(-45)" x="-1.5" y="-0.7" width="3" height="1.5" class="a"/><rect transform="translate(188.247112 166.473162)rotate(-45)" x="-1.5" y="-0.7" width="3" height="1.5" class="a"/><rect transform="translate(189.825406 171.188692)rotate(-45)" x="-3.7" y="-0.7" width="7.4" height="1.5" class="a"/><rect transform="translate(194.53913 172.758162)rotate(-45)" x="-1.5" y="-0.7" width="3" height="1.5" class="a"/><rect transform="translate(197.678118 175.900562)rotate(-45)" x="-1.5" y="-0.7" width="3" height="1.5" class="a"/><rect transform="translate(200.817006 179.043062)rotate(-45)" x="-1.5" y="-0.7" width="3" height="1.5" class="a"/><rect transform="translate(202.3953 183.758491)rotate(-45)" x="-3.7" y="-0.7" width="7.4" height="1.5" class="a"/><rect transform="translate(206.058014 184.280462)rotate(-45)" x="-1.5" y="-0.7" width="3" height="1.5" class="a"/><rect transform="translate(209.196902 187.422962)rotate(-45)" x="-1.5" y="-0.7" width="3" height="1.5" class="a"/><rect transform="translate(212.33589 190.565462)rotate(-45)" x="-1.5" y="-0.7" width="3" height="1.5" class="a"/><rect transform="translate(213.914184 195.280891)rotate(-45)" x="-3.7" y="-0.7" width="7.4" height="1.5" class="a"/><path d="M187.9 50.1L159.7 61.4 41.3 179.8C43.2 180.2 46 182.2 48.1 184.3 50.1 186.3 51.6 188.6 52.7 191.2 55.2 192.2 57.5 193.7 59.6 195.8 61.6 197.8 63.1 200.2 64.2 202.7 66.7 203.7 68.9 205.1 71 207.2 73 209.2 74.6 211.6 75.5 214L193.9 95.6 205.1 67.2 216.3 38.9 187.9 50.1 187.9 50.1Z" fill="#DCB78D"/><path d="M163.7 68.8C161.6 66.7 159.5 63.8 159.1 62L40 181.1 51.4 192.5 170.5 73.3C168.7 72.9 165.7 70.8 163.7 68.8L163.7 68.8Z" class="b"/><path d="M175.1 80.2C173 78.1 170.9 75.2 170.5 73.4L51.4 192.5 62.8 203.9 181.9 84.7C180.1 84.3 177.1 82.2 175.1 80.2L175.1 80.2Z" class="b"/><path d="M186.6 91.7C184.5 89.6 183.5 87.8 182 84.7L62.8 203.9 74.2 215.3 193.3 96.2C191 95.3 188.6 93.7 186.6 91.7L186.6 91.7Z" class="b"/><path d="M163.7 68.8C161.6 66.7 159.5 63.8 159.1 62L40 181.1 51.4 192.5 170.5 73.3C168.7 72.9 165.7 70.8 163.7 68.8L163.7 68.8Z" style="fill:url(#linearGradient-1);opacity:0.1"/><path d="M175.1 80.2C173 78.1 170.9 75.2 170.5 73.4L51.4 192.5 62.8 203.9 181.9 84.7C180.1 84.3 177.1 82.2 175.1 80.2L175.1 80.2Z" style="fill:url(#linearGradient-2);opacity:0.1"/><path d="M186.6 91.7C184.5 89.6 183.5 87.8 182 84.7L62.8 203.9 74.2 215.3 193.3 96.2C191 95.3 188.6 93.7 186.6 91.7L186.6 91.7Z" style="fill:url(#linearGradient-3);opacity:0.1"/><path d="M216.3 38.9L201.4 44.8C201.9 46.9 202.9 49 204.6 50.6 206.2 52.3 208.3 53.3 210.4 53.7L216.3 38.9 216.3 38.9Z" class="a"/><path d="M44.1 177C45 176.1 46.4 176.1 47.3 177L78.2 208C79.1 208.9 79.1 210.3 78.2 211.2L61 228.5C60.1 229.4 58.6 229.4 57.7 228.5L26.8 197.6C25.9 196.7 25.9 195.2 26.8 194.3L44.1 177 44.1 177Z" fill="#EA565E"/><rect transform="translate(65.634207 189.646419)rotate(225)" x="-24.2" y="-15.3" width="48.3" height="30.6" fill="#B4B4B4"/><rect transform="translate(58.223653 197.046958)rotate(-45)" x="-1.7" y="-24.2" width="3.4" height="48.4" class="c"/><rect transform="translate(62.213917 193.055564)rotate(-45)" x="-0.9" y="-24.2" width="1.7" height="48.3" class="c"/><rect transform="translate(70.182417 185.08449)rotate(-45)" x="-0.9" y="-24.2" width="1.7" height="48.3" class="d"/><rect transform="translate(74.179552 181.099567)rotate(-45)" x="-1.7" y="-24.2" width="3.4" height="48.4" class="d"/></g></svg>