<svg xmlns="http://www.w3.org/2000/svg" xmlns:xlink="http://www.w3.org/1999/xlink" version="1.1" id="Capa_1" x="0" y="0" width="500.33" height="749" viewBox="0 0 500.33 749" enable-background="new 0 0 500.333 749" xml:space="preserve">
  <rect x="161.49" y="310.38" fill="#EFC996" width="181.11" height="112"/>
  <path fill="#1E1E1C" d="M500 662.57l-3.23-24.87c0 0-19.67-229.31-42.5-251.2 -20.21-19.38-111.73-34.27-111.73-34.27s-62.96 73.25-89.86 73.73c-26 0.47-91.18-73.72-91.18-73.72s-88.78 16.77-108.65 35.83c-15.11 14.49-35.29 149.87-44.84 219.9l-0.26-0.05 -1.89 16.04c-2.09 15.77-3.3 25.55-3.3 25.55l0.28 0.02L0 673.68l105.67 7.89c-1.5 23.62-0.9 46.72-2.01 67.41h292.07l0.38-65.35L500 662.57zM106.32 626.39l-22.29-3.31 22.18-128.37C106.21 494.71 106.32 554.67 106.32 626.39zM421.08 618.57l-22.98 5.33 3.69-132.23L421.08 618.57z"/>
  <path fill="#FFFFFF" d="M252.74 420.47l-91.29-68.18c0 0 44.77 219.2 90.57 219.2 45.21 0 90.57-219.27 90.57-219.27L252.74 420.47z"/>
  <path opacity="0.3" fill="#1E1E1C" d="M161.49 351.66c0 0 65.04 45.65 91.03 45.6 25.78-0.05 90.07-45.53 90.07-45.53v-42.09H161.49V351.66z"/>
  <path fill="#EFC996" d="M252.52 387.11c-39.01 0.1-105.73-41.73-132.48-68.48 -9.06-9.06-40.43-149-21.45-189.03 18.98-40.03 58.94-111.7 153.33-111.7 91.98 0 134.51 71.21 153.63 111.18 19.11 39.97-18.32 186.5-20.85 189.03C357.96 344.87 291.54 387.02 252.52 387.11z"/>
  <path fill="#1E1E1C" d="M405.56 96.64c-9.95-20.78-24.48-51.39-50.73-74.67 0.01-0.02-0.28-0.17-0.28-0.14C304.66 9.5 215.35-5.52 190.11 2.04c-23.96 7.18-59.29 17.64-87.66 40.41 2.26 0.39 4.95 0.81 7.82 1.24 -4.69 3.23-9.3 6.7-13.74 10.51 2.82 0.5 6.22 1.04 9.97 1.59 -4.99 3.6-9.89 7.46-14.62 11.71 2.79 0.53 6.14 1.11 9.79 1.69 -3.55 2.83-7.05 5.78-10.46 8.94 3.57 0.66 7.94 1.36 12.86 2.08 -3.15 2.46-6.27 5-9.3 7.73 3.49 0.67 7.74 1.39 12.52 2.13 -2.73 2.17-5.43 4.4-8.07 6.77 1.55 0.3 3.27 0.61 5.09 0.92 -7.68 19.68-12.56 39.59-11.97 59.97 0.74 25.72-1.97 69.5 13.86 115.37 10.14-22.93 35.67-87.36 42.14-124.11 2.79-15.82 4.78-30.81 6.05-44.67 27.89 2.82 58.98 4.74 81.25 3.5 49.61-2.77 92.98-11.36 118.55-22.21 0.69 17.71 2.05 35.41 4.38 48.91 10.2 58.93 27.46 106.25 42.93 112.66C411.75 200.57 416.08 118.65 405.56 96.64zM354.52 22.35"/>
  <path fill="#1E1E1C" d="M282.81 322.21c0 0-0.77 0.46-2.47 1.22 -0.84 0.43-1.76 0.69-2.87 1.13 -1.1 0.44-2.34 0.86-3.71 1.22 -2.72 0.87-5.93 1.63-9.39 2.32 -3.43 0.85-7.16 1.17-10.85 1.8 -3.7 0.56-7.42 0.74-10.9 1.1 -3.47 0.39-6.73 0.43-9.51 0.54 -5.57 0.2-9.28 0.34-9.28 0.34 -0.81 0.03-1.5-0.61-1.53-1.42 -0.03-0.8 0.58-1.47 1.38-1.53l0.08 0c0 0 3.67-0.24 9.17-0.6 2.75-0.19 5.97-0.32 9.37-0.81 3.41-0.46 7.07-0.74 10.67-1.39 3.58-0.72 7.23-1.14 10.51-2.05 3.33-0.77 6.39-1.58 8.93-2.48 1.3-0.38 2.45-0.81 3.43-1.24 0.97-0.42 1.93-0.73 2.52-1.07 1.25-0.59 2.06-1.08 2.06-1.08 1.1-0.67 2.54-0.33 3.21 0.77 0.67 1.1 0.33 2.54-0.77 3.21 -0.01 0-0.01 0.01-0.02 0.01L282.81 322.21z"/>
  <path fill="#1E1E1C" d="M292.04 163.48c0 0 0.93 0.17 2.56 0.47 1.71 0.31 4.1 0.8 6.85 1.46 5.58 1.25 12.88 3.35 20.07 5.86 3.55 1.43 7.15 2.6 10.4 4.17 1.62 0.77 3.19 1.51 4.68 2.22 1.47 0.75 2.92 1.28 4.14 2.09 4.97 2.98 8.28 4.96 8.28 4.96 2.09 1.25 2.77 3.97 1.52 6.06 -1.18 1.97-3.66 2.69-5.7 1.71l-0.5-0.24c0 0-3.14-1.52-7.85-3.81 -1.13-0.63-2.56-1.01-3.95-1.57 -1.42-0.52-2.91-1.08-4.46-1.65 -3.07-1.17-6.57-1.97-9.93-3 -6.88-1.74-13.86-3.1-19.13-3.81 -2.65-0.39-4.8-0.64-6.27-0.78 -1.55-0.14-2.44-0.23-2.44-0.23l-0.17-0.02c-3.85-0.36-6.69-3.78-6.33-7.63 0.36-3.85 3.78-6.69 7.63-6.33C291.63 163.42 291.84 163.45 292.04 163.48z"/>
  <path fill="#1E1E1C" d="M223.53 177.41c0 0-0.23 0.01-0.66 0.02 -0.41 0.02-1.01 0.05-1.77 0.09 -1.44 0.06-3.57 0.24-6.21 0.54 -2.63 0.2-5.66 0.81-8.94 1.27 -1.62 0.34-3.29 0.69-4.99 1.04 -1.68 0.4-3.46 0.64-5.12 1.19 -3.33 1.07-6.85 1.77-9.85 3.08 -3.01 1.26-6 2.18-8.29 3.41 -4.62 2.44-7.7 4.07-7.7 4.07l-0.54 0.28c-2.15 1.14-4.82 0.32-5.96-1.84 -1.07-2.03-0.39-4.53 1.5-5.77 0 0 3.27-2.12 8.16-5.29 2.46-1.6 5.58-2.88 8.81-4.56 3.23-1.72 6.9-2.82 10.48-4.31 1.79-0.76 3.65-1.18 5.45-1.78 1.81-0.54 3.59-1.13 5.33-1.6 3.51-0.81 6.75-1.75 9.61-2.23 2.81-0.58 5.24-0.99 7.02-1.23 1.66-0.22 2.61-0.35 2.61-0.35 3.84-0.52 7.37 2.17 7.89 6.01 0.52 3.84-2.17 7.37-6.01 7.89 -0.23 0.03-0.45 0.05-0.68 0.06L223.53 177.41z"/>
  <g opacity="0.47">
    <g opacity="0.29">
      <path fill="#FFFFFF" d="M387.19 188.41l8.75 31c0.02 0.07-0.02 0.15-0.09 0.17 -0.07 0.02-0.15-0.02-0.17-0.09l-9.82-30.68c-0.12-0.37 0.09-0.76 0.45-0.88 0.37-0.12 0.76 0.09 0.88 0.45C387.18 188.39 387.19 188.4 387.19 188.41z"/>
    </g>
    <g opacity="0.29">
      <path fill="#FFFFFF" d="M385.34 170.61l8.75 31c0.02 0.07-0.02 0.15-0.09 0.17 -0.07 0.02-0.15-0.02-0.17-0.09l-9.82-30.68c-0.12-0.37 0.09-0.76 0.45-0.88 0.37-0.12 0.76 0.09 0.88 0.45C385.33 170.59 385.33 170.6 385.34 170.61z"/>
    </g>
    <g opacity="0.29">
      <path fill="#FFFFFF" d="M383.48 152.8l8.75 31c0.02 0.07-0.02 0.15-0.09 0.17 -0.07 0.02-0.15-0.02-0.17-0.09l-9.82-30.68c-0.12-0.37 0.09-0.76 0.45-0.88 0.37-0.12 0.76 0.09 0.88 0.45C383.47 152.79 383.48 152.8 383.48 152.8z"/>
    </g>
    <g opacity="0.29">
      <path fill="#FFFFFF" d="M381.62 135l8.75 31c0.02 0.07-0.02 0.15-0.09 0.17 -0.07 0.02-0.15-0.02-0.17-0.09l-9.83-30.68c-0.12-0.37 0.09-0.76 0.45-0.88 0.37-0.12 0.76 0.09 0.88 0.45C381.62 134.98 381.62 134.99 381.62 135z"/>
    </g>
    <g opacity="0.29">
      <path fill="#FFFFFF" d="M379.77 117.19l8.75 31c0.02 0.07-0.02 0.15-0.09 0.17 -0.07 0.02-0.15-0.02-0.17-0.09l-9.82-30.68c-0.12-0.37 0.09-0.76 0.45-0.88 0.37-0.12 0.76 0.09 0.88 0.45C379.77 117.18 379.77 117.19 379.77 117.19z"/>
    </g>
    <g opacity="0.29">
      <path fill="#FFFFFF" d="M377.92 99.39l8.74 31c0.02 0.07-0.02 0.15-0.09 0.17 -0.07 0.02-0.15-0.02-0.17-0.09l-9.82-30.68c-0.12-0.37 0.09-0.76 0.45-0.88 0.37-0.12 0.76 0.09 0.88 0.45C377.91 99.37 377.92 99.38 377.92 99.39z"/>
    </g>
  </g>
  <g opacity="0.47">
    <g opacity="0.29">
      <path fill="#FFFFFF" d="M119.78 188.82l-9.82 30.68c-0.02 0.07-0.1 0.11-0.17 0.09 -0.07-0.02-0.11-0.1-0.09-0.17l8.75-31c0.11-0.37 0.49-0.59 0.86-0.48 0.37 0.11 0.59 0.49 0.48 0.86C119.78 188.8 119.78 188.81 119.78 188.82z"/>
    </g>
    <g opacity="0.29">
      <path fill="#FFFFFF" d="M121.63 171.01l-9.82 30.68c-0.02 0.07-0.1 0.11-0.17 0.09 -0.07-0.02-0.11-0.1-0.09-0.17l8.75-31c0.11-0.37 0.49-0.59 0.86-0.48 0.37 0.11 0.59 0.49 0.48 0.86C121.64 170.99 121.63 171 121.63 171.01z"/>
    </g>
    <g opacity="0.29">
      <path fill="#FFFFFF" d="M123.49 153.21l-9.82 30.68c-0.02 0.07-0.1 0.11-0.17 0.09 -0.07-0.02-0.11-0.1-0.09-0.17l8.75-31c0.11-0.37 0.49-0.59 0.86-0.48 0.37 0.11 0.59 0.49 0.48 0.86C123.49 153.19 123.49 153.2 123.49 153.21z"/>
    </g>
    <g opacity="0.29">
      <path fill="#FFFFFF" d="M125.34 135.4l-9.82 30.68c-0.02 0.07-0.1 0.11-0.17 0.09 -0.07-0.02-0.11-0.1-0.09-0.17l8.75-31c0.11-0.37 0.49-0.59 0.86-0.48 0.37 0.11 0.59 0.49 0.48 0.86C125.35 135.39 125.34 135.39 125.34 135.4z"/>
    </g>
    <g opacity="0.29">
      <path fill="#FFFFFF" d="M127.2 117.6l-9.82 30.68c-0.02 0.07-0.1 0.11-0.17 0.09 -0.07-0.02-0.11-0.1-0.09-0.17l8.75-31c0.11-0.37 0.49-0.59 0.86-0.48 0.37 0.11 0.59 0.49 0.48 0.86C127.2 117.58 127.2 117.59 127.2 117.6z"/>
    </g>
    <g opacity="0.29">
      <path fill="#FFFFFF" d="M129.05 99.79l-9.82 30.68c-0.02 0.07-0.1 0.11-0.17 0.09 -0.07-0.02-0.11-0.1-0.09-0.17l8.75-31c0.11-0.37 0.49-0.59 0.86-0.48 0.37 0.11 0.59 0.49 0.48 0.86C129.05 99.78 129.05 99.79 129.05 99.79z"/>
    </g>
  </g>
  <path fill="#FFFFFF" d="M221.48 208.81c0 9.71-7.86 17.57-17.56 17.57 -9.71 0-17.57-7.87-17.57-17.57 0-9.7 7.86-17.57 17.57-17.57C213.62 191.25 221.48 199.11 221.48 208.81z"/>
  <path fill="#422A19" d="M214.97 208.82c0 6.11-4.95 11.05-11.05 11.05 -6.11 0-11.05-4.94-11.05-11.05 0-6.11 4.95-11.05 11.05-11.05C210.02 197.76 214.97 202.71 214.97 208.82z"/>
  <circle fill="#1E1E1C" cx="203.92" cy="208.82" r="3.5"/>
  <path fill="#FFFFFF" d="M208.64 203.02c0 1.17-0.95 2.12-2.12 2.12 -1.18 0-2.12-0.95-2.12-2.12 0-1.17 0.95-2.13 2.12-2.13C207.69 200.9 208.64 201.85 208.64 203.02z"/>
  <path fill="#FFFFFF" d="M203.85 205.48c0 0.49-0.39 0.89-0.89 0.89 -0.49 0-0.89-0.4-0.89-0.89 0-0.5 0.4-0.89 0.89-0.89C203.46 204.59 203.85 204.99 203.85 205.48z"/>
  <path fill="#FFFFFF" d="M291.35 208.81c0 9.71 7.86 17.57 17.57 17.57 9.71 0 17.57-7.87 17.57-17.57 0-9.7-7.86-17.57-17.57-17.57C299.21 191.25 291.35 199.11 291.35 208.81z"/>
  <path fill="#422A19" d="M297.87 208.82c0 6.11 4.95 11.05 11.05 11.05 6.11 0 11.05-4.94 11.05-11.05 0-6.11-4.95-11.05-11.05-11.05C302.81 197.76 297.87 202.71 297.87 208.82z"/>
  <circle fill="#1E1E1C" cx="308.92" cy="208.82" r="3.5"/>
  <path fill="#FFFFFF" d="M304.2 203.02c0 1.17 0.95 2.12 2.12 2.12 1.18 0 2.12-0.95 2.12-2.12 0-1.17-0.95-2.13-2.12-2.13C305.15 200.9 304.2 201.85 304.2 203.02z"/>
  <path fill="#FFFFFF" d="M308.98 205.48c0 0.49 0.39 0.89 0.89 0.89 0.49 0 0.89-0.4 0.89-0.89 0-0.5-0.4-0.89-0.89-0.89C309.38 204.59 308.98 204.99 308.98 205.48z"/>
  <path fill="#1E1E1C" d="M252.37 461.66l-24.74-34.7 12.29-14.94c0 0 8.51-0.92 11.62-0.92 3.06 0 13.07 0.92 13.07 0.92l11.67 16.39L252.37 461.66z"/>
  <path fill="#424141" d="M265.49 410.33c2.96 3.08 5.84 6.25 8.56 9.5 1.4 1.61 2.74 3.25 4.05 4.92 1.32 1.67 2.68 3.3 3.92 5.03 2.58 3.39 5.05 6.85 7.38 10.42 2.46 3.47 4.47 7.26 6.73 10.88l-4.02-0.08 0 0c9.88-15.63 19.36-31.59 28.21-47.85 4.41-8.14 8.66-16.37 12.53-24.78 3.8-8.41 7.89-17.09 9.65-26.14l0.18 0.05c-1.47 9.27-4.74 18.18-8.26 26.78 -3.59 8.59-7.57 17.01-11.71 25.34 -8.32 16.65-17.24 32.96-26.64 49.05l0 0 -1.97 3.2 -2.06-3.28c-2.2-3.52-4.14-7.19-6.55-10.59 -2.27-3.48-4.69-6.87-7.21-10.18 -1.21-1.69-2.55-3.29-3.84-4.93 -1.29-1.64-2.6-3.25-3.97-4.82 -2.68-3.2-5.46-6.27-8.34-9.26L265.49 410.33z"/>
  <path fill="#424141" d="M243.12 414.01c-3.01 2.94-5.94 5.96-8.74 9.14 -1.43 1.56-2.81 3.15-4.15 4.79 -1.34 1.63-2.76 3.21-4.01 4.91 -2.62 3.32-5.14 6.7-7.49 10.21 -2.52 3.4-4.46 7.13-6.72 10.68l-2.08 3.26 -1.95-3.18 0 0c-9.4-16.15-18.32-32.5-26.65-49.19 -4.14-8.35-8.13-16.79-11.72-25.4 -3.52-8.62-6.69-17.65-8.17-26.94l0.21-0.03c1.77 9.07 5.74 17.84 9.54 26.28 3.87 8.43 8.13 16.68 12.55 24.85 8.86 16.31 18.35 32.32 28.23 48l0 0 -4.02 0.08c2.33-3.66 4.36-7.54 6.93-11.02 2.41-3.61 5-7.08 7.68-10.47 1.29-1.74 2.73-3.35 4.11-5.02 1.37-1.67 2.79-3.31 4.25-4.9 2.85-3.24 5.88-6.36 8.99-9.39L243.12 414.01z"/>
  <polygon fill="#1E1E1C" points="252.18 416.53 268.64 496.27 285.11 576.02 252.18 576.02 219.25 576.02 235.71 496.27 "/>
  <path fill="#2D2E2C" d="M353.46 354.39l14.36 58.77 0.44 1.79 -1.82 0.84 0 0 -18.08 7.58 0.83-3.72 16.92 18.67 1.2 1.32 -0.95 1.49c-15.7 24.64-32.19 48.7-49.92 71.93 -8.9 11.58-18.11 22.96-28.18 33.66 -5.04 5.34-10.31 10.51-16.13 15.18 -2.93 2.32-5.97 4.54-9.38 6.35 -1.68 0.93-3.5 1.71-5.42 2.33 -0.97 0.3-1.97 0.54-3.02 0.69 -0.51 0.1-1.07 0.09-1.6 0.14l-0.4 0.02c-1.35 0.47 1.72-0.64 1.4-0.49 0.29-0.18 0.72-0.76 0.8-1.24 0.08-0.46 0.02-0.08 0.03-0.16l-0.03 0.61c-0.24 14.43-0.19 29.07-0.22 43.6l0.01 43.68 0.14 87.36 -4.67 0.01 -0.14-87.36 0-43.68c0.04-14.59-0.02-29.07 0.23-43.76l0.04-0.76c0.02-0.2-0.03 0.07 0.06-0.5 0.08-0.54 0.52-1.17 0.82-1.4 -0.31 0.08 2.82-1.02 1.53-0.56l0.28-0.02c0.37-0.04 0.73-0.02 1.11-0.09 0.76-0.11 1.52-0.29 2.29-0.53 1.54-0.51 3.09-1.15 4.59-1.98 3.02-1.61 5.9-3.69 8.67-5.89 5.54-4.45 10.7-9.49 15.65-14.73 9.89-10.51 19.03-21.8 27.87-33.3 17.6-23.07 34.07-47.1 49.67-71.57l0.25 2.81 -16.92-18.67 -2.21-2.44 3.04-1.27 18.08-7.58 0 0 -1.38 2.62 -10.14-59.65L353.46 354.39z"/>
  <path fill="#2D2E2C" d="M148.45 355.24c-1.43 9.87-3.06 19.69-4.82 29.49 -1.65 9.82-3.62 19.58-5.49 29.35l-1.28-2.44c6.08 2.41 12.14 4.86 18.17 7.38l3.09 1.29 -2.24 2.5 -16.82 18.75 0.26-3.02c7.87 12.16 16.05 24.19 24.4 36.05 8.4 11.84 16.85 23.64 25.71 35.11 8.83 11.49 18.05 22.68 27.83 33.26 4.91 5.26 10.01 10.35 15.48 14.87 2.74 2.25 5.58 4.35 8.56 6.08 2.95 1.7 6.15 3.05 9.08 3.13v4.67c-4.41-0.08-8.1-1.77-11.45-3.59 -3.34-1.88-6.4-4.08-9.32-6.4 -5.82-4.66-11.11-9.81-16.21-15.1 -10.18-10.61-19.36-22.02-28.33-33.55 -17.88-23.12-34.29-47.22-49.98-71.85l-1.03-1.61 1.29-1.41 17.01-18.58 0.84 3.79c-6.03-2.53-12.02-5.14-18-7.78l-1.67-0.74 0.39-1.7c2.21-9.7 4.33-19.43 6.76-29.08 2.33-9.68 4.78-19.33 7.43-28.94L148.45 355.24z"/>
  <circle fill="#2D2E2C" cx="265.79" cy="592.72" r="6.42"/>
  <circle fill="#2D2E2C" cx="265.79" cy="654.56" r="6.42"/>
  <path fill="#424141" d="M259.46 451.85c-7.11-5.29-14.25-0.42-14.32-0.37l-1.09-1.56c0.08-0.06 8.34-5.69 16.54 0.4L259.46 451.85z"/>
</svg>
