<svg xmlns="http://www.w3.org/2000/svg" xmlns:xlink="http://www.w3.org/1999/xlink" version="1.1" id="Capa_1" x="0" y="0" width="1000.31" height="905.67" viewBox="0 0 1000.31 905.67" enable-background="new 0 0 1000.312 905.667" xml:space="preserve">
  <path fill="#B5B4B4" d="M668.85 892.32c0.7 0.77 1.13 1.61 1.21 2.57 0.54 6.91-18.84 4.33-32.74 4.33l-285.38-0.12c-13.9 0-24.76 1.38-24.19-2.64 0.02-0.13 0.06-0.24 0.09-0.37 -0.21 0.64-0.33 1.54-0.33 2.25 0 3.56 2.91 6.67 6.5 6.67h332c3.59 0 6.5-3.11 6.5-6.67C672.5 895.79 671.01 893.37 668.85 892.32z"/>
  <path fill="#CDCCCC" d="M649.43 882.58c-4.98-2.87-12.25-5.9-20.33-16.03C622.76 858.57 613.17 737 611.7 719h-225.84c-1.17 18-7.86 126.59-14.92 142.71 -4.29 9.79-15.61 16.5-23.31 20.92 -8.94 5.13-19.01 7.77-19.89 13.93 -0.57 4.01 10.29 2.59 24.19 2.59l285.38 0.1c13.9 0 33.28 2.58 32.74-4.34C669.64 889.59 658.43 887.75 649.43 882.58z"/>
  <path fill="#F0EFEE" d="M1000 589.42v100.86c0 16.91-14.07 30.62-31.42 30.62H31.42C14.07 720.89 0 707.19 0 690.27V589.42h998.15H1000z"/>
  <path fill="#50494B" d="M1000 28.17v571.74h-1.85H0V28.17C0 12.61 14.07 0 31.42 0h937.15C985.93 0 1000 12.61 1000 28.17z"/>
  <rect x="43" y="43" fill="#2EABE2" width="916" height="508"/>
  <g id="XMLID_2_">
    <circle fill="#50494B" cx="500.55" cy="664.25" r="22.52"/>
  </g>
  <polygon fill="#ECF0F1" points="519.05 494.13 500.21 499.65 465.66 489.7 457.68 397.33 522.53 397.33 "/>
  <path fill="#FFFFFF" d="M157.81 137.97c2.18 2.27 5.19 3.8 8.39 3.8 3.99 0 6.35-1.99 6.35-4.96 0-3.1-2.22-4.08-5.1-5.37l-4.35-1.9c-2.83-1.2-6.16-3.38-6.16-7.83 0-4.63 4.08-8.06 9.59-8.06 3.61 0 6.81 1.53 8.94 3.75l-2.04 2.5c-1.85-1.76-4.12-2.87-6.9-2.87 -3.43 0-5.7 1.71-5.7 4.45 0 2.92 2.69 4.03 5.05 5.05l4.36 1.85c3.52 1.53 6.25 3.62 6.25 8.11 0 4.82-3.98 8.66-10.38 8.66 -4.26 0-7.97-1.76-10.61-4.49L157.81 137.97z"/>
  <path fill="#FFFFFF" d="M181.94 111.61h3.75v22.33h0.14l9.59-11.86h4.22l-7.55 9.04 8.57 13.48h-4.17l-6.58-10.84 -4.22 4.91v5.93h-3.75V111.61z"/>
  <path fill="#FFFFFF" d="M204.18 114.99c0-1.48 1.16-2.46 2.64-2.46s2.64 0.97 2.64 2.46c0 1.44-1.16 2.46-2.64 2.46S204.18 116.43 204.18 114.99zM204.88 122.08h3.8v22.52h-3.8V122.08z"/>
  <path fill="#FFFFFF" d="M216.27 111.61h3.8v28.73c0 1.21 0.51 1.67 1.07 1.67 0.23 0 0.42 0 0.84-0.09l0.51 2.87c-0.51 0.23-1.16 0.37-2.18 0.37 -2.87 0-4.03-1.81-4.03-5.09V111.61z"/>
  <path fill="#FFFFFF" d="M228.09 111.61h3.8v28.73c0 1.21 0.51 1.67 1.07 1.67 0.23 0 0.42 0 0.84-0.09l0.51 2.87c-0.51 0.23-1.16 0.37-2.18 0.37 -2.87 0-4.03-1.81-4.03-5.09V111.61z"/>
  <path fill="#FFFFFF" d="M239.3 139.5c1.95 1.58 3.94 2.69 6.63 2.69 2.97 0 4.45-1.58 4.45-3.52 0-2.31-2.69-3.34-5.14-4.26 -3.2-1.16-6.72-2.69-6.72-6.49 0-3.61 2.87-6.39 7.74-6.39 2.83 0 5.28 1.16 7 2.55l-1.81 2.41c-1.53-1.16-3.15-1.99-5.14-1.99 -2.83 0-4.12 1.53-4.12 3.24 0 2.09 2.46 2.92 5 3.89 3.24 1.2 6.86 2.55 6.86 6.81 0 3.66-2.92 6.72-8.25 6.72 -3.2 0-6.25-1.34-8.39-3.1L239.3 139.5z"/>
  <rect x="153" y="201" fill="#ECF0F1" width="86" height="106"/>
  <rect x="355" y="201" fill="#ECF0F1" width="77" height="106"/>
  <rect x="551" y="201" fill="#ECF0F1" width="76" height="106"/>
  <rect x="749" y="201" fill="#ECF0F1" width="35" height="106"/>
  <path fill="#CDCCCC" d="M153 235.56L223.15 307h9.04L153 226.52V235.56zM153 252.62L206.1 307h9.04L153 243.57V252.62zM153 269.67L189.04 307h9.04L153 260.63V269.67zM153 307h10.98L153 294.73V307zM238.73 199.99l1.45 1.45v-1.45H238.73zM153 286.72L171.99 307h9.04L153 277.68V286.72zM204.63 201L239 235.55v-9.04L213.67 201H204.63zM221.68 201L239 218.5v-9.04L230.72 201H221.68zM187.58 201L239 252.6v-9.04L196.62 201H187.58zM170.53 201L239 269.65v-9.04L179.57 201H170.53zM153 218.51l86 85.25v-9.04l-86-85.25V218.51zM153 201v0.46l86 85.25v-9.04L162.52 201H153z"/>
  <path fill="#CDCCCC" d="M463.9 468.09l28.45 28.45 7.86 2.29 4.15-1.23 -41.48-41.48L463.9 468.09zM461.97 445.51l49.87 49.87 7.2-2.14 0.06-1.56 -58.15-58.15L461.97 445.51zM465.66 488.75l12.99 3.79L464.8 478.69 465.66 488.75zM514.9 399l7.37 7.37L522.53 399H514.9zM457.68 399l0.44 3.27 62.02 61.06 0.38-9.13L463.88 399H457.68zM494.24 399l27.32 25.4 0.38-9.61L505.19 399H494.24zM473.59 399l47.27 45.34 0.38-9.61L484.54 399H473.59zM460.05 422.93l59.38 59.39 0.38-10.58 -60.78-60.78L460.05 422.93z"/>
  <path fill="#CDCCCC" d="M749 264.45l35 35.21v-9.04l-35-35.21V264.45zM749 281.51L770.22 307h9.04L749 272.46V281.51zM749 298.56l4.17 8.44h9.04L749 289.52V298.56zM749 247.4l35 35.21v-9.04l-35-35.21V247.4zM749 230.35l35 35.21v-9.04l-35-35.21V230.35zM751.71 201L784 231.46v-9.04L760.75 201H751.71zM777.8 201h-9.04L784 214.4v-9.04L777.8 201zM749 213.3l35 35.21v-9.04l-35-35.21V213.3z"/>
  <path fill="#CDCCCC" d="M551 283l19.44 24h9.04L551 273.96V283zM551 300.05l2.39 6.95h9.04L551 291.01V300.05zM551 265.95L587.49 307h9.04L551 256.9V265.95zM620.13 201l6.87 4.51V201H620.13zM551 231.84L621.6 307H627v-8.22l-76-75.98V231.84zM551.92 201L627 273.72v-9.04L560.96 201H551.92zM603.08 201L627 222.56v-9.04L612.12 201H603.08zM586.03 201L627 239.62v-9.04L595.07 201H586.03zM568.97 201L627 256.67v-9.04L578.02 201H568.97zM551 214.79l76 75.98v-9.04l-76-75.98V214.79zM551 248.9L604.54 307h9.04L551 239.85V248.9z"/>
  <path fill="#CDCCCC" d="M355 298.92l3.08 8.08h9.04L355 289.88V298.92zM355 281.87L375.14 307h9.04L355 272.82V281.87zM355 247.76L409.24 307h9.04L355 238.72V247.76zM355 230.71L426.29 307H432v-7.5l-77-77.83V230.71zM424.83 201l7.17 5.23V201H424.83zM355 264.81L392.19 307h9.04L355 255.77V264.81zM390.72 201L432 240.33v-9.04L399.77 201H390.72zM407.78 201L432 223.28v-9.04L416.82 201H407.78zM356.62 201L432 274.44v-9.04L365.66 201H356.62zM355 213.66l77 77.83v-9.04l-77-77.83V213.66zM373.67 201L432 257.39v-9.04L382.71 201H373.67z"/>
  <path fill="#50494B" d="M191.91 262.03l-4 13.19h-8.77l14.91-46.53h10.84l15.12 46.53h-9.11l-4.21-13.18H191.91zM205.23 255.61l-3.66-11.46c-0.9-2.83-1.66-6.01-2.35-8.7h-0.14c-0.69 2.69-1.38 5.94-2.21 8.7l-3.59 11.46H205.23z"/>
  <path fill="#50494B" d="M232.36 232.21c0 2.55-1.86 4.56-4.83 4.56 -2.83 0-4.69-2-4.69-4.56 0-2.62 1.93-4.63 4.76-4.63C230.49 227.59 232.29 229.59 232.36 232.21zM223.31 275.22v-33.62h8.56v33.62H223.31z"/>
  <path fill="#50494B" d="M150.9 197.72v109.97h112.56V197.72H150.9zM254.51 298.97h-94.42v-92.3h94.42V298.97z"/>
  <path fill="#50494B" d="M349 201v110h112V201H349zM452 300h-93v-89h93V300z"/>
  <path fill="#50494B" d="M376.41 229.19c3.04-0.55 7.25-0.97 12.98-0.97 6.21 0 10.77 1.31 13.74 3.8 2.76 2.28 4.56 5.94 4.56 10.29 0 4.42-1.38 8.08-4 10.56 -3.38 3.38-8.7 4.97-14.7 4.97 -1.59 0-3.04-0.07-4.14-0.28v17.53h-8.42V229.19zM384.83 250.87c1.04 0.28 2.42 0.35 4.14 0.35 6.35 0 10.22-3.11 10.22-8.56 0-5.18-3.59-7.94-9.46-7.94 -2.35 0-4 0.21-4.9 0.42V250.87z"/>
  <path fill="#50494B" d="M410.3 267.29c1.93 1.17 5.59 2.42 8.63 2.42 3.73 0 5.38-1.52 5.38-3.73 0-2.28-1.38-3.45-5.52-4.9 -6.56-2.28-9.32-5.87-9.25-9.8 0-5.94 4.9-10.56 12.7-10.56 3.73 0 6.97 0.97 8.9 2l-1.66 6.01c-1.45-0.83-4.14-1.93-7.11-1.93 -3.04 0-4.69 1.45-4.69 3.52 0 2.14 1.59 3.18 5.87 4.69 6.07 2.21 8.9 5.32 8.97 10.29 0 6.08-4.76 10.56-13.67 10.56 -4.07 0-7.73-1.04-10.21-2.42L410.3 267.29z"/>
  <path fill="#50494B" d="M545 201v110h112V201H545zM648 300h-93v-89h93V300z"/>
  <path fill="#50494B" d="M586.57 228.54v46.53h-8.49v-46.53H586.57z"/>
  <path fill="#50494B" d="M623.54 226.06v39.56c0 3.45 0.13 7.18 0.25 9.46h-6.95l-0.31-5.32h-0.13c-1.83 3.73-5.56 6.08-10.05 6.08 -7.33 0-13.14-6.83-13.14-17.19 -0.06-11.25 6.38-17.95 13.78-17.95 4.24 0 7.27 1.93 8.66 4.42h0.12v-19.05H623.54zM615.77 255.47c0-0.69-0.06-1.52-0.19-2.21 -0.7-3.31-3.16-6.01-6.7-6.01 -4.99 0-7.77 4.83-7.77 11.11 0 6.14 2.78 10.63 7.71 10.63 3.16 0 5.94-2.35 6.7-6 0.19-0.76 0.25-1.59 0.25-2.49V255.47z"/>
  <path fill="#50494B" d="M743 201v110h110V201H743zM845 300h-94v-89h94V300z"/>
  <path fill="#50494B" d="M779 228.54h26.85v6.97h-18.36v12.84h17.12v6.97h-17.12v19.74h-8.49V228.54z"/>
  <path fill="#50494B" d="M810.2 226.06h8.56v49.01h-8.56V226.06z"/>
  <polygon fill="#CDCCCC" points="333.2 488.26 300.92 498.26 268.64 488.26 261.19 395.41 335.31 395.71 "/>
  <path fill="#ECF0F1" d="M264.74 439.69l53.27 53.28 8.36-2.59 -62.58-62.58L264.74 439.69zM262.94 417.25l70.28 70.28 0.24-10.7 -71.47-71.48L262.94 417.25zM268.34 484.57l5.21 5.21 15.86 4.91 -22.02-22.02L268.34 484.57zM266.54 462.13l35.72 35.72 8.36-2.59 -45.03-45.03L266.54 462.13zM261.74 395.41l71.94 71.94 0.24-10.7 -61.19-61.19L261.74 395.41zM303.19 395.58l31.41 31.41 0.24-10.7 -20.66-20.66L303.19 395.58zM334.91 395.71l-10.99-0.04 11.15 11.15 0.24-10.7L334.91 395.71zM282.47 395.49l51.67 51.67 0.24-10.7 -40.93-40.93L282.47 395.49z"/>
  <path fill="#50494B" d="M268.14 366.43h6.07v5.99h5.55v-5.99h6.07v18.15h-6.07v-6.08h-5.55v6.08h-6.07L268.14 366.43 268.14 366.43z"/>
  <path fill="#50494B" d="M293.79 372.45h-5.34v-6.02h16.75v6.02h-5.34v12.13h-6.07L293.79 372.45 293.79 372.45z"/>
  <path fill="#50494B" d="M307.86 366.43h6.33l3.89 6.38 3.89-6.38h6.33v18.15h-6.04v-9l-4.17 6.45h-0.1l-4.18-6.45v9h-5.93V366.43z"/>
  <path fill="#50494B" d="M331.31 366.43h6.07v12.15h8.53v6h-14.6V366.43z"/>
  <path fill="#50494B" d="M259.1 393l8.7 98.49 39.07 10.19 39.11-9.85L354.7 393H259.1zM339.59 485.92l-32.69 8.59 -32.59-8.51L266.58 400h80.83L339.59 485.92z"/>
  <polygon fill="#50494B" points="276.91 412.49 280.14 448.7 321.64 448.7 320.25 464.23 306.89 467.85 293.55 464.24 292.66 454.27 280.64 454.27 282.36 473.49 306.88 480.3 331.44 473.49 334.74 436.73 291.09 436.73 289.99 424.47 335.78 424.47 335.82 424.47 336.89 412.49 "/>
  <rect x="647" y="393" fill="#ECF0F1" width="38" height="107"/>
  <path fill="#CDCCCC" d="M648.34 393L685 426.58v-9.03L657.38 393H648.34zM647 421.69l38 38.92v-9.04l-38-38.92V421.69zM647 404.64l38 38.92v-9.04l-38-38.92V404.64zM665.4 393L685 409.56v-9L674.44 393H665.4zM682.45 390l2.55 2.61V390H682.45zM647 438.75l38 38.92v-9.04l-38-38.92V438.75zM647 489.9L655.37 500h9.04L647 480.86V489.9zM647 472.85L672.42 500h9.04L647 463.81V472.85zM646.03 499.24h1.32l-1.32-1.32V499.24zM647 455.8l38 39.14v-9.08l-38-39.1V455.8z"/>
  <path fill="#50494B" d="M758.59 501.69H643.7V386.79h114.9V501.69zM649.26 496.13h103.78V392.35H649.26V496.13z"/>
  <path fill="#50494B" d="M746.86 472.83c-0.8-4.99-4.05-9.18-13.69-13.08 -3.35-1.54-7.08-2.64-8.19-5.18 -0.39-1.48-0.45-2.31-0.2-3.2 0.72-2.9 4.18-3.8 6.92-2.97 1.77 0.59 3.44 1.95 4.45 4.13 4.72-3.06 4.71-3.03 8-5.13 -1.21-1.87-1.85-2.73-2.64-3.53 -2.84-3.17-6.7-4.8-12.89-4.68 -1.07 0.14-2.15 0.28-3.22 0.42 -3.09 0.78-6.03 2.4-7.75 4.57 -5.18 5.87-3.7 16.15 2.6 20.38 6.21 4.66 15.32 5.72 16.48 10.07 1.13 5.33-3.92 7.06-8.94 6.44 -3.7-0.77-5.76-2.65-7.98-6.07 -4.09 2.37-4.09 2.37-8.3 4.79 1 2.18 2.05 3.17 3.72 5.06 7.92 8.03 27.74 7.64 31.29-4.52C746.68 479.91 747.63 477.12 746.86 472.83zM705.92 439.82h-10.23c0 8.83-0.04 17.61-0.04 26.44 0 5.62 0.29 10.78-0.62 12.36 -1.5 3.11-5.37 2.72-7.14 2.12 -1.8-0.88-2.71-2.14-3.77-3.92 -0.29-0.51-0.51-0.9-0.58-0.93 -2.77 1.69-5.54 3.4-8.31 5.09 1.38 2.84 3.42 5.3 6.03 6.9 3.9 2.34 9.14 3.06 14.61 1.8 3.57-1.04 6.64-3.19 8.25-6.46 2.33-4.29 1.83-9.49 1.81-15.24C705.97 458.6 705.92 449.23 705.92 439.82z"/>
  <polygon fill="#50494B" points="481.59 378.56 481.59 372.75 490.07 372.75 490.07 366.39 475.23 366.39 475.23 384.37 490.07 384.37 490.07 378.56 "/>
  <path fill="#50494B" d="M505.33 372.75h5.93v-6.36h-14.84c0 0 0 3.19 0 6.36 1.99 1.99 3.02 2.94 5.89 5.81 -1.68 0-5.89 0.01-5.89 0.01v5.8h14.84v-5.8L505.33 372.75z"/>
  <path fill="#50494B" d="M526.36 372.75h5.93v-6.36h-14.84c0 0 0 3.19 0 6.36 1.99 1.99 3.02 2.94 5.89 5.81 -1.68 0-5.89 0.01-5.89 0.01v5.8h14.84v-5.8L526.36 372.75z"/>
  <path fill="#50494B" d="M455.69 393l9.01 98.69 39.06 9.95 39.06-9.66L551.84 393H455.69zM536.5 485.76l-32.65 9.34 -32.74-8.56L463.58 400h80.46L536.5 485.76z"/>
  <polygon fill="#50494B" points="532.48 424.67 533.67 413 473.25 413 474.71 427 505.36 427 503.73 426.46 475.77 437.49 477.83 448.71 479 448.39 479 448.41 519.34 448.54 517.85 463.91 503.93 467.75 490.65 466.49 489.68 459 477.49 459 477.54 459 477.54 459 477.89 461.28 479.08 474.2 479.1 473.76 479.13 473.82 503.77 480.85 528.28 475.13 531.46 440 503.66 440 503.73 438.47 "/>
  <circle fill="#808081" cx="500.41" cy="24.11" r="7.52"/>
</svg>
