<?xml version="1.0" encoding="UTF-8" standalone="no"?>
<svg width="240px" height="268px" viewBox="0 0 240 268" version="1.1" xmlns="http://www.w3.org/2000/svg" xmlns:xlink="http://www.w3.org/1999/xlink" xmlns:sketch="http://www.bohemiancoding.com/sketch/ns">
    <!-- Generator: Sketch 3.3.3 (12081) - http://www.bohemiancoding.com/sketch -->
    <title>Untitled</title>
    <desc>Created with Sketch.</desc>
    <defs></defs>
    <g id="Page-1" stroke="none" stroke-width="1" fill="none" fill-rule="evenodd" sketch:type="MSPage">
        <g id="web" sketch:type="MSLayerGroup">
            <g id="Group" sketch:type="MSShapeGroup">
                <path d="M0,78.7 C0,71.16 5.75,61.91 12.28,58.14 L108.36,2.83 C114.89,-0.94 125.68,-0.94 132.21,2.83 L228.1,58.14 C234.64,61.9 240,71.16 240,78.7 L240,189.3 C240,196.84 234.69,206.09 228.16,209.86 L132.3,265.17 C125.77,268.94 115.09,268.94 108.56,265.17 L12.28,209.86 C5.75,206.1 0,196.84 0,189.3 L0,78.7 L0,78.7 Z" id="Shape" fill="#8E44AD"></path>
                <path d="M204,206.63 C204,211.23 200.91,216.5 196.47,216.5 L43.62,216.5 C39.19,216.5 36,211.23 36,206.63 L36,60.43 C36,55.83 39.19,52.51 43.62,52.51 L196.47,52.51 C200.9,52.51 204,55.83 204,60.44 L204,206.63 L204,206.63 Z" id="Shape" fill="#FFFFFF"></path>
                <path d="M196.3,52.5 L43.8,52.5 C39.36,52.5 36,54.33 36,58.76 L36,84.56 C36,84.73 37.08,85.5 37.78,85.5 L202.32,85.5 C203.02,85.5 204,84.73 204,84.56 L204,58.76 C204,54.33 200.73,52.5 196.3,52.5 L196.3,52.5 Z" id="Shape" fill="#CDCCCC"></path>
                <circle id="Oval" fill="#FFFFFF" cx="44.21" cy="57.84" r="3.05"></circle>
                <circle id="Oval" fill="#FFFFFF" cx="53.35" cy="57.84" r="3.05"></circle>
                <circle id="Oval" fill="#FFFFFF" cx="62.5" cy="57.84" r="3.05"></circle>
                <path d="M149,71.65 C149,73.77 147.28,75.5 145.15,75.5 L47.85,75.5 C45.72,75.5 44,73.78 44,71.65 L44,70.34 C44,68.22 45.72,66.49 47.85,66.49 L145.16,66.49 C147.28,66.49 149.01,68.21 149.01,70.34 L149.01,71.65 L149,71.65 Z" id="Shape" fill="#FFFFFF"></path>
                <path d="M192,71.65 C192,73.77 190.28,75.5 188.15,75.5 L157.84,75.5 C155.72,75.5 153.99,73.78 153.99,71.65 L153.99,70.34 C153.99,68.22 155.71,66.49 157.84,66.49 L188.15,66.49 C190.27,66.49 192,68.21 192,70.34 L192,71.65 L192,71.65 Z" id="Shape" fill="#FFFFFF"></path>
                <rect id="Rectangle-path" fill="#2EABE2" x="48" y="98.5" width="48" height="49"></rect>
                <rect id="Rectangle-path" fill="#676767" x="104" y="98.5" width="59" height="11"></rect>
                <rect id="Rectangle-path" fill="#B4B4B4" x="104" y="117.5" width="85" height="5"></rect>
                <rect id="Rectangle-path" fill="#B4B4B4" x="104" y="129.5" width="85" height="6"></rect>
                <rect id="Rectangle-path" fill="#B4B4B4" x="104" y="141.5" width="85" height="6"></rect>
                <rect id="Rectangle-path" fill="#B4B4B4" x="48" y="154.5" width="141" height="5"></rect>
                <rect id="Rectangle-path" fill="#B4B4B4" x="48" y="166.5" width="141" height="5"></rect>
                <rect id="Rectangle-path" fill="#B4B4B4" x="48" y="178.5" width="141" height="5"></rect>
                <rect id="Rectangle-path" fill="#B4B4B4" x="48" y="190.5" width="141" height="5"></rect>
            </g>
        </g>
    </g>
</svg>